<svg width="60" height="60" viewBox="0 0 60 60" fill="none" xmlns="http://www.w3.org/2000/svg">
<g clip-path="url(#clip0_10434_24642)">
<path d="M5.99801 22.9395C5.02336 22.6951 4.37859 22.2738 4.08152 21.6872C4.06535 21.6554 4.05129 21.624 4.03793 21.593C5.14137 21.298 5.95758 20.2927 5.95758 19.0975C5.95758 17.6716 4.79766 16.5117 3.37184 16.5117H2.58574C1.15992 16.5117 0 17.6716 0 19.0975C0 20.3537 0.900586 21.4023 2.08992 21.6343C2.31984 22.7666 3.20262 24.1723 5.54203 24.7587C5.61855 24.7778 5.69531 24.787 5.7709 24.787C6.19078 24.787 6.57316 24.5029 6.6798 24.0771C6.80566 23.5746 6.50039 23.0654 5.99801 22.9395Z" fill="#D2555A"/>
<path d="M1.40137 41.7539V52.5039C1.40137 54.662 3.15086 56.4116 5.3091 56.4116C7.46723 56.4116 9.21684 54.6621 9.21684 52.5039V41.7539H1.40137Z" fill="#2A2A33"/>
<path opacity="0.1" d="M1.40137 47.8815C3.07398 49.4662 5.32973 50.427 7.8032 50.427H9.21672V41.7539H1.40137V47.8815Z" fill="black"/>
<path d="M58.5987 41.7539V52.5039C58.5987 54.662 56.8492 56.4116 54.6909 56.4116C52.5328 56.4116 50.7832 54.6621 50.7832 52.5039V41.7539H58.5987Z" fill="#2A2A33"/>
<path opacity="0.1" d="M58.5986 47.8815C56.9259 49.4662 54.6702 50.427 52.1967 50.427H50.7832V41.7539H58.5986V47.8815Z" fill="black"/>
<path d="M58.598 41.7541C59.7662 30.2704 52.9533 22.0195 52.9533 22.0195H7.04595C7.04595 22.0195 0.233376 30.2704 1.40127 41.7541C1.73584 45.0436 4.49677 47.5513 7.8031 47.5513H52.196C55.5026 47.5513 58.2635 45.0436 58.598 41.7541Z" fill="#D2555A"/>
<path opacity="0.1" d="M8.90338 41.7541C7.73525 30.2704 14.5481 22.0195 14.5481 22.0195H7.04595C7.04595 22.0195 0.233376 30.2704 1.40127 41.7541C1.73584 45.0436 4.49677 47.5513 7.8031 47.5513H15.3051C11.9989 47.5513 9.23795 45.0436 8.90338 41.7541Z" fill="black"/>
<path d="M55.5772 26.2422C55.5223 26.2689 55.4689 26.3015 55.4184 26.3398C52.8662 28.2854 49.6934 29.3568 46.4844 29.3568H13.5152C10.3061 29.3568 7.1332 28.2854 4.58121 26.3398C4.5307 26.3013 4.47738 26.2689 4.42242 26.2422C4.15523 26.7719 3.88512 27.3453 3.62109 27.9606C6.46734 30.0704 9.9709 31.2324 13.5154 31.2324H46.4846C50.0291 31.2324 53.5324 30.0704 56.3789 27.9607C56.1144 27.3453 55.8444 26.7719 55.5772 26.2422Z" fill="#FF6465"/>
<path d="M9.32773 35.0754C11.2923 35.0754 12.885 33.4828 12.885 31.5182C12.885 29.5536 11.2923 27.9609 9.32773 27.9609C7.36313 27.9609 5.77051 29.5536 5.77051 31.5182C5.77051 33.4828 7.36313 35.0754 9.32773 35.0754Z" fill="#FFB64D"/>
<path opacity="0.1" d="M8.27031 31.5182C8.27031 29.9937 9.22961 28.6937 10.5771 28.1875C10.1881 28.0413 9.76691 27.9609 9.32676 27.9609C7.36223 27.9609 5.76953 29.5535 5.76953 31.5182C5.76953 33.4828 7.36211 35.0754 9.32676 35.0754C9.76691 35.0754 10.188 34.995 10.5771 34.8489C9.22961 34.3427 8.27031 33.0428 8.27031 31.5182Z" fill="black"/>
<path d="M50.6725 35.0754C52.6371 35.0754 54.2297 33.4828 54.2297 31.5182C54.2297 29.5536 52.6371 27.9609 50.6725 27.9609C48.7079 27.9609 47.1152 29.5536 47.1152 31.5182C47.1152 33.4828 48.7079 35.0754 50.6725 35.0754Z" fill="#FFB64D"/>
<path d="M57.4143 16.5117H56.6281C55.2023 16.5117 54.0423 17.6716 54.0423 19.0975C54.0423 20.2927 54.8585 21.298 55.962 21.593C55.9486 21.6241 55.9344 21.6554 55.9184 21.6872C55.6214 22.2737 54.9767 22.6951 54.0019 22.9395C53.4995 23.0653 53.1945 23.5747 53.3203 24.0771C53.4271 24.503 53.8094 24.787 54.2292 24.787C54.3047 24.787 54.3814 24.7778 54.4581 24.7587C56.7975 24.1723 57.6802 22.7666 57.9102 21.6343C59.0994 21.4023 60.0001 20.3536 60.0001 19.0973C60 17.6716 58.8401 16.5117 57.4143 16.5117Z" fill="#D2555A"/>
<path d="M27.9458 37.0552H16.9885C16.4707 37.0552 16.0508 36.6353 16.0508 36.1174C16.0508 35.5996 16.4707 35.1797 16.9885 35.1797H27.9458C28.4636 35.1797 28.8835 35.5996 28.8835 36.1174C28.8835 36.6353 28.4636 37.0552 27.9458 37.0552Z" fill="#2A2A33"/>
<path d="M43.0112 37.0552H32.0539C31.5361 37.0552 31.1162 36.6353 31.1162 36.1174C31.1162 35.5996 31.5361 35.1797 32.0539 35.1797H43.0112C43.5291 35.1797 43.9489 35.5996 43.9489 36.1174C43.9489 36.6353 43.5292 37.0552 43.0112 37.0552Z" fill="#2A2A33"/>
<path d="M58.7125 38.0592C58.3708 38.3012 57.7109 38.6834 56.5562 39.0746C54.2081 39.8701 49.4711 40.8182 40.2394 40.8182H19.7611C15.009 40.8182 8.43787 40.5526 4.11904 39.2872C2.51908 38.8184 1.69291 38.3472 1.28849 38.0469C1.26037 38.7546 1.2599 39.4788 1.29142 40.2181C3.68205 41.387 8.80419 42.6937 19.761 42.6937H40.2393C51.1962 42.6937 56.3183 41.387 58.7088 40.2181C58.7404 39.4829 58.7402 38.7629 58.7125 38.0592Z" fill="#FF6465"/>
<path d="M52.9545 22.0206C52.9545 22.0206 52.3435 3.58594 39.2758 3.58594H20.7256C7.65789 3.58594 7.04688 22.0206 7.04688 22.0206H52.9545Z" fill="#FF6465"/>
<path d="M11.3076 18.2686C11.568 16.9709 11.958 15.48 12.5397 14.0127C13.368 11.9238 14.4148 10.3023 15.6512 9.19277C17.0435 7.94332 18.7031 7.33594 20.725 7.33594H39.2752C41.3198 7.33594 42.9954 7.95773 44.3977 9.23684C45.642 10.3718 46.6917 12.0273 47.5174 14.1578C48.0671 15.5763 48.44 17.0126 48.6921 18.2685L11.3076 18.2686Z" fill="#99EEFF"/>
<path d="M7.04566 41.3687C8.24449 41.3687 9.21633 40.3968 9.21633 39.198C9.21633 37.9992 8.24449 37.0273 7.04566 37.0273C5.84684 37.0273 4.875 37.9992 4.875 39.198C4.875 40.3968 5.84684 41.3687 7.04566 41.3687Z" fill="#FF9140"/>
<path opacity="0.1" d="M6.37535 39.1981C6.37535 38.2633 6.96727 37.469 7.7959 37.1633C7.56187 37.0769 7.3098 37.0273 7.04566 37.0273C5.84684 37.0273 4.875 37.9992 4.875 39.198C4.875 40.3968 5.84684 41.3687 7.04566 41.3687C7.30969 41.3687 7.56176 41.3191 7.7959 41.2327C6.96738 40.9273 6.37535 40.1328 6.37535 39.1981Z" fill="black"/>
<path d="M52.9529 41.3687C54.1517 41.3687 55.1236 40.3968 55.1236 39.198C55.1236 37.9992 54.1517 37.0273 52.9529 37.0273C51.7541 37.0273 50.7822 37.9992 50.7822 39.198C50.7822 40.3968 51.7541 41.3687 52.9529 41.3687Z" fill="#FF9140"/>
<path d="M30.0004 38.1706C31.1348 38.1706 32.0544 37.251 32.0544 36.1166C32.0544 34.9821 31.1348 34.0625 30.0004 34.0625C28.8659 34.0625 27.9463 34.9821 27.9463 36.1166C27.9463 37.251 28.8659 38.1706 30.0004 38.1706Z" fill="#BAC2D9"/>
<path opacity="0.1" d="M29.3216 36.1166C29.3216 35.2237 29.8923 34.4661 30.688 34.1831C30.4727 34.1064 30.2419 34.0625 30.0004 34.0625C28.866 34.0625 27.9463 34.9822 27.9463 36.1166C27.9463 37.2509 28.8659 38.1706 30.0004 38.1706C30.2419 38.1706 30.4727 38.1267 30.688 38.05C29.8923 37.7669 29.3216 37.0093 29.3216 36.1166Z" fill="black"/>
<path opacity="0.1" d="M49.616 31.5182C49.616 29.9937 50.5753 28.6937 51.9229 28.1875C51.5338 28.0413 51.1126 27.9609 50.6725 27.9609C48.7079 27.9609 47.1152 29.5535 47.1152 31.5182C47.1152 33.4828 48.7078 35.0754 50.6725 35.0754C51.1126 35.0754 51.5337 34.995 51.9229 34.8489C50.5753 34.3427 49.616 33.0428 49.616 31.5182Z" fill="black"/>
<path opacity="0.1" d="M52.2836 39.1981C52.2836 38.2633 52.8755 37.469 53.7041 37.1633C53.4701 37.0769 53.218 37.0273 52.9539 37.0273C51.755 37.0273 50.7832 37.9992 50.7832 39.198C50.7832 40.3968 51.755 41.3687 52.9539 41.3687C53.2179 41.3687 53.47 41.3191 53.7041 41.2327C52.8756 40.9273 52.2836 40.1328 52.2836 39.1981Z" fill="black"/>
<path opacity="0.1" d="M28.2266 3.58594H20.7246C7.65691 3.58594 7.0459 22.0206 7.0459 22.0206H14.5479C14.5479 22.0206 15.159 3.58594 28.2266 3.58594Z" fill="black"/>
<path d="M36.9754 45.1953H23.0254V49.9148H36.9754V45.1953Z" fill="#BAC2D9"/>
<path opacity="0.1" d="M23.0244 45.1914V49.9109H28.3552C25.8691 48.6503 25.7869 46.4188 25.9623 45.1914H23.0244Z" fill="black"/>
</g>
<defs>
<clipPath id="clip0_10434_24642">
<rect width="60" height="60" fill="white"/>
</clipPath>
</defs>
</svg>
