<svg width="60" height="60" viewBox="0 0 60 60" fill="none" xmlns="http://www.w3.org/2000/svg">
<path d="M56.2031 51.8906V59.1562H42.75C46.6406 53.7187 46.6875 46.4531 42.8438 40.9688C43.1719 41.0156 43.4531 41.0156 43.7813 41.0625C45.3281 41.1094 46.875 41.3438 48.375 41.6719C53.0156 42.9844 56.2031 47.1562 56.2031 51.8906Z" fill="#F4F1F1"/>
<path d="M17.25 59.1562H3.79688V51.8906C3.79688 47.1094 6.98438 42.9375 11.5781 41.6719C13.2656 41.25 14.9531 41.0625 16.6406 40.9687C16.7813 40.9687 16.9688 40.9219 17.1562 40.9219C13.3125 46.4531 13.3594 53.7187 17.25 59.1562Z" fill="#F4F1F1"/>
<path d="M32.1562 43.9688L29.9531 40.5938L27.7031 43.9688H32.1562Z" fill="#F4F1F1"/>
<path d="M25.7344 50.625L24.2812 49.2656H18.0937C18.0469 49.5 18.0469 49.7812 18.0469 50.0156C18.0469 53.5312 19.5937 56.9062 22.3125 59.1562H28.1719V51.5625C27.3281 51.6094 26.4375 51.2344 25.7344 50.625Z" fill="#F4F1F1"/>
<path d="M41.9062 49.2656H35.7187L34.2656 50.625C33.5625 51.2344 32.7188 51.6094 31.7812 51.6094V59.2031H37.6406C40.3594 56.9531 41.9062 53.5781 41.9062 50.0625C41.9062 49.7813 41.9062 49.5469 41.9062 49.2656Z" fill="#F4F1F1"/>
<path d="M38.1563 41.3438L34.2656 44.7188L35.7187 45.75H41.1094C40.4531 44.0625 39.4688 42.5625 38.1563 41.3438Z" fill="#F4F1F1"/>
<path d="M21.75 41.3438L25.6406 44.7188L24.1875 45.75H18.75C19.4062 44.0625 20.4375 42.5625 21.75 41.3438Z" fill="#F4F1F1"/>
<path d="M18.1875 13.7812V18.75C18.1875 19.5 18.2812 20.25 18.4219 20.9531L19.125 24.1875C19.5 25.875 19.7344 27.7031 20.3906 29.3437C21.4219 31.8281 23.3438 33.7969 25.7813 34.875C28.5 34.125 31.4063 34.125 34.125 34.875C36.5625 33.7969 38.5313 31.8281 39.5156 29.3437C40.1719 27.7031 40.4062 25.9219 40.7812 24.1875L41.4844 20.9531C41.625 20.25 41.7188 19.5 41.7188 18.75V13.7812H18.1875Z" fill="#FFE5B3"/>
<path d="M42.1406 18.0938C42.0469 18.0938 41.9063 18.0938 41.8125 18.1406V18.75C41.8125 19.5 41.7188 20.25 41.5781 20.9531L40.875 24.2344C42.5156 24.9375 44.3906 24.1875 45.0938 22.5938C45.7969 20.9531 45.0469 19.0781 43.4531 18.375C42.9844 18.1875 42.5625 18.0938 42.1406 18.0938Z" fill="#FFCC99"/>
<path d="M18.4214 20.9546C18.2808 20.2515 18.1871 19.5015 18.1871 18.7515V18.1421C16.4527 17.9078 14.8121 19.1265 14.5777 20.8609C14.3433 22.5953 15.5621 24.2359 17.2964 24.4703C17.9058 24.564 18.5621 24.4703 19.1246 24.189L18.4214 20.9546Z" fill="#FFCC99"/>
<path d="M34.2656 50.625L35.7188 49.2656H41.9063C41.8125 48.0469 41.5781 46.875 41.1094 45.75H35.7188L33.1875 43.9688H26.8125L24.2813 45.75H18.8906C18.4688 46.875 18.1875 48.0937 18.0938 49.2656H24.2813L25.7344 50.625C26.4375 51.2344 27.2813 51.6094 28.2188 51.6094V59.2031H31.7344V51.6094C32.6719 51.6094 33.5625 51.2344 34.2656 50.625Z" fill="#FF7038"/>
<path d="M18.0937 50.0627C18.0937 43.5002 23.4375 38.1565 30 38.1565C36.5625 38.1565 41.9062 43.5002 41.9062 50.0627C41.9062 53.5784 40.3594 56.9534 37.6406 59.2034H42.75C47.8125 52.1721 46.1719 42.3284 39.1406 37.3127C32.1094 32.2971 22.2656 33.8909 17.25 40.9221C13.3594 46.4065 13.3594 53.719 17.25 59.2034H22.3594C19.6406 56.9065 18.0937 53.5784 18.0937 50.0627Z" fill="#393647"/>
<path d="M41.8125 13.7812H18.1875C18.1875 15.8438 19.875 17.5313 21.9375 17.5313H38.0625C40.125 17.5313 41.8125 15.8438 41.8125 13.7812Z" fill="#49566D"/>
<path d="M34.5469 39C31.6406 37.7813 28.3125 37.7813 25.4062 39L29.9531 40.5469L34.5469 39Z" fill="#FFCC99"/>
<path d="M33.1875 43.9688L34.2656 44.7188L38.1562 41.3438C37.125 40.3594 35.9062 39.5625 34.5469 39L29.9531 40.5938L32.2031 43.9219L33.1875 43.9688Z" fill="#49566D"/>
<path d="M26.8125 43.9688H27.7031L29.9531 40.6406L25.4063 39.0938C24.0938 39.6562 22.875 40.4531 21.7969 41.4375L25.6875 44.8125L26.8125 43.9688Z" fill="#49566D"/>
<path d="M38.5312 0.796875H21.4687C19.4062 0.796875 17.4844 1.78125 16.2656 3.46875C14.625 5.76563 14.625 8.8125 16.2656 11.1094L18.1875 13.7812H41.8125L43.7344 11.1094C45.375 8.8125 45.375 5.76563 43.7344 3.46875C42.5156 1.82812 40.5937 0.84375 38.5312 0.796875Z" fill="#393647"/>
<path d="M28.5469 22.9688L28.875 20.7656C28.9219 20.2969 29.3438 20.0156 29.8125 20.0625C30.2813 20.1094 30.5625 20.5312 30.5156 21L30.1875 23.2031L31.0781 23.1562C31.5469 23.1562 31.9219 23.5312 31.9219 24C31.9219 24.4688 31.5469 24.8438 31.0781 24.8438H30.1406C29.1562 24.7969 28.4063 23.9062 28.5469 22.9688ZM33.75 27.9844C34.0313 27.6562 33.9844 27.1406 33.6562 26.8125C33.2812 26.5312 32.7656 26.5781 32.4844 26.9062C31.1719 28.2188 28.7813 28.2656 27.4688 26.9062C27.1875 26.5312 26.6719 26.4844 26.2969 26.7656C25.9219 27.0469 25.875 27.5625 26.1563 27.9375C27.6094 29.8125 31.5469 30.4219 33.75 27.9844ZM33.375 47.7656C33.375 47.2969 33 46.9219 32.5313 46.9219H27.5156C27.0469 46.9219 26.6719 47.2969 26.6719 47.7656C26.6719 48.2344 27.0469 48.6094 27.5156 48.6094H32.5781C33.0469 48.6094 33.375 48.2344 33.375 47.7656ZM57.0469 51.8906V59.1562C57.0469 59.625 56.6719 60 56.2031 60H3.84375C3.375 60 3 59.625 3 59.1562V51.8906C3 46.7812 6.42188 42.2812 11.3906 40.9219C14.1563 40.2656 16.0781 40.2656 16.7344 40.2188C18.5625 37.7812 21 35.9062 23.8125 34.7344C21.9375 33.5156 20.4844 31.7344 19.6406 29.6719C18.8906 27.7031 18.7031 26.3438 18.5156 25.2656C16.125 25.7812 13.7813 23.9062 13.7344 21.3281C13.7344 19.2188 15.3281 17.4844 17.3906 17.2969V14.0625L15.6094 11.625C12.1406 6.79687 15.6094 0 21.5156 0H38.5781C44.5312 0 47.9062 6.79687 44.4375 11.625L42.6562 14.0625V17.2969C44.8594 17.5781 46.4531 19.5938 46.1719 21.7969C45.8906 24.0938 43.7344 25.6406 41.5312 25.2656C41.2969 26.4844 41.1094 27.75 40.4062 29.625C39.5625 31.6875 38.1094 33.4688 36.2344 34.6875C39.0469 35.8125 41.5313 37.7344 43.3125 40.1719C45.375 40.3594 46.6406 40.3594 48.6562 40.875C49.0781 41.0156 49.3594 41.4375 49.2188 41.8594C49.0781 42.2812 48.6562 42.5625 48.1875 42.4219C46.2656 41.9531 44.8594 41.9531 44.3906 41.9062C47.25 47.0156 47.2031 53.25 44.25 58.3125H48.5156V53.7188C48.5156 53.25 48.8906 52.875 49.3594 52.875C49.8281 52.875 50.2031 53.25 50.2031 53.7188V58.3125H55.4062V51.8438C55.4062 49.3594 54.4688 47.0156 52.7812 45.1875C52.4531 44.8594 52.5 44.3438 52.8281 44.0156C53.1562 43.6875 53.6719 43.7344 54 44.0625C55.9688 46.2656 57.0469 49.0312 57.0469 51.8906ZM42.6562 18.9844C42.6562 19.6875 42.5625 20.4375 42.4219 21.1406L41.8594 23.6719C43.2188 23.9062 44.5781 22.8281 44.5781 21.3281C44.5781 20.2031 43.7813 19.2188 42.6562 18.9844ZM16.9688 10.6406L18.6563 12.9844H22.4063C22.875 12.9844 23.25 13.3594 23.25 13.8281C23.25 14.2969 22.875 14.6719 22.4063 14.6719H19.1719C19.5469 15.9375 20.6719 16.7812 21.9844 16.7812H38.1094C39.4219 16.7812 40.5469 15.9375 40.9219 14.6719H31.4531C30.9844 14.6719 30.6094 14.2969 30.6094 13.8281C30.6094 13.3594 30.9844 12.9844 31.4531 12.9844H41.4375L43.125 10.6406C45.8438 6.89063 43.1719 1.64062 38.5781 1.64062H21.5156C16.9219 1.64062 14.25 6.9375 16.9688 10.6406ZM18.2344 23.6719L17.6719 21.1406C17.5313 20.4375 17.4375 19.6875 17.4375 18.9844C16.125 19.1719 15.2344 20.3906 15.4688 21.7031C15.6563 23.0156 16.9219 23.9062 18.2344 23.6719ZM25.9688 34.0312C28.6406 33.3281 31.4531 33.3281 34.125 34.0312C36.2812 33 37.9688 31.2188 38.8594 29.0625C39.4688 27.3281 39.3281 27.5625 40.8281 20.8125C40.9688 20.1562 41.0625 19.4531 41.0625 18.7969V17.3438C40.2656 18.0469 39.1875 18.4219 38.1563 18.4219H37.2188C37.4063 19.5 36.7031 20.5312 35.625 20.7188C34.2656 20.9531 33.0938 19.7812 33.3281 18.4219H26.7656C26.9531 19.5 26.25 20.5312 25.1719 20.7188C23.8125 20.9531 22.6406 19.7812 22.875 18.4219H21.9375C20.8594 18.4219 19.8281 18.0469 19.0313 17.3438V18.75C19.0313 19.4531 19.125 20.1094 19.2656 20.7656C20.7188 27.5625 20.5781 27.2812 21.2344 29.0156C22.125 31.2188 23.8125 33 25.9688 34.0312ZM4.6875 58.3594H9.75V53.7656C9.75 53.2969 10.125 52.9219 10.5938 52.9219C11.0625 52.9219 11.4375 53.2969 11.4375 53.7656V58.3594H15.8438C12.8906 53.2969 12.8438 47.0156 15.75 41.9062C14.4844 42 13.1719 42.1875 11.9531 42.4688C7.73437 43.6406 4.78125 47.4844 4.78125 51.8906V58.3594H4.6875ZM41.1562 50.1094H36.0938L34.875 51.2344C34.2656 51.7969 33.4688 52.1719 32.6719 52.3594V58.3594H37.4062C39.75 56.25 41.1094 53.25 41.1562 50.1094ZM35.625 44.625L36.0469 44.9062H39.8906C39.4219 44.0156 38.8125 43.1719 38.1563 42.4219L35.625 44.625ZM36.9375 41.3438C36.1875 40.7812 35.3906 40.2656 34.5469 39.8906L31.2656 41.0156L32.6719 43.125H33.2344C33.4219 43.125 33.5625 43.1719 33.7031 43.2656L34.2188 43.6406L36.9375 41.3438ZM29.2969 43.125H30.7031L30 42.0938L29.2969 43.125ZM31.875 39.0938C30.6563 38.9062 29.3906 38.9062 28.1719 39.0938L30 39.7031L31.875 39.0938ZM23.1094 41.3906L25.7813 43.6875L26.3906 43.2656C26.5313 43.1719 26.7188 43.125 26.8594 43.125H27.3281L28.7344 41.0156L25.5 39.8906C24.6563 40.3125 23.8125 40.8281 23.1094 41.3906ZM20.2031 44.9531H24.0469L24.375 44.7188L21.8906 42.5625C21.2344 43.2656 20.6719 44.0625 20.2031 44.9531ZM27.4688 52.3125C26.625 52.1719 25.875 51.7969 25.2656 51.1875L24.0469 50.0625H18.9375C18.9375 53.2031 20.3438 56.25 22.6875 58.3125H27.4219V52.3125H27.4688ZM29.1094 51.6094V58.3594H30.9844V51.6094C30.9844 51.1406 31.3594 50.7656 31.8281 50.7656C32.5313 50.7656 33.2344 50.4844 33.75 50.0156L35.2031 48.6562C35.3438 48.5156 35.5312 48.4219 35.7656 48.4219H41.0156C40.9219 47.7656 40.7812 47.1562 40.5938 46.5469H35.7656C35.5781 46.5469 35.4375 46.5 35.2969 46.4062L33 44.7656H27.0938L24.7969 46.4062C24.6563 46.5 24.4688 46.5469 24.3281 46.5469H19.5C19.3125 47.1562 19.125 47.8125 19.0781 48.4219H24.3281C24.5156 48.4219 24.75 48.5156 24.8906 48.6562L26.3438 50.0156C26.8594 50.4844 27.5625 50.7656 28.2656 50.7656C28.7344 50.7656 29.1094 51.1406 29.1094 51.6094ZM39.7031 58.3594H42.4219C44.1094 55.8281 44.9531 52.9688 44.9531 50.1562C45 41.8125 38.2031 35.1562 30.0469 35.1562C21.75 35.1562 15.1406 41.9062 15.1406 50.0625C15.1406 52.9688 15.9844 55.875 17.6719 58.3594H20.3906C18.375 56.0156 17.2969 53.1094 17.2969 50.1094C17.25 43.3125 22.6875 37.3594 29.9531 37.3125C37.3125 37.2656 42.7969 43.2656 42.75 50.1094C42.75 53.1094 41.7188 56.0156 39.7031 58.3594ZM26.6719 14.625H27.2344C27.7031 14.625 28.0781 14.25 28.0781 13.7812C28.0781 13.3125 27.7031 12.9375 27.2344 12.9375H26.6719C26.2031 12.9375 25.8281 13.3125 25.8281 13.7812C25.8281 14.25 26.2031 14.625 26.6719 14.625Z" fill="black"/>
</svg>
