<svg width="60" height="60" viewBox="0 0 60 60" fill="none" xmlns="http://www.w3.org/2000/svg">
<g clip-path="url(#clip0_10434_24678)">
<path d="M25.4543 41.4129C24.5529 40.4769 23.3869 39.7856 22.0528 39.4659L17.2314 38.3106V35.3672H11.3436V38.3201L6.53473 39.4689C3.39023 40.22 1.17188 43.0305 1.17188 46.2635V54.141H11.8315L25.4543 41.4129Z" fill="#78D2FA"/>
<path d="M17.3578 35.3672V38.39L14.3023 45.709L11.25 38.4005V35.3672H17.3578Z" fill="#FFB487"/>
<path d="M20.854 25.2266V29.3035C20.854 32.9279 17.9157 35.866 14.2913 35.866C10.6668 35.866 7.72852 32.9279 7.72852 29.3035V25.2266H20.854Z" fill="#FFCDAC"/>
<path d="M20.854 26.5173V24.9375C20.854 21.3131 17.9157 18.375 14.2913 18.375C10.6668 18.375 7.72852 21.3131 7.72852 24.9375V26.5173H12.2523C15.0852 26.5173 17.865 25.7482 20.295 24.2921" fill="#878791"/>
<path d="M34.5459 41.4129C35.4473 40.4769 36.6133 39.7856 37.9474 39.4659L42.7688 38.3106V35.3672H48.6566V38.3201L53.4655 39.4689C56.61 40.22 58.8283 43.0305 58.8283 46.2635V54.141H48.1687L34.5459 41.4129Z" fill="#A5DC69"/>
<path d="M25.8925 41.2969L19.177 42.9061C14.8002 43.9549 11.7139 47.8682 11.7139 52.3686V58.8278H48.2611V52.3743C48.2611 47.8712 45.1714 43.9564 40.7914 42.9101L34.0933 41.31L25.8925 41.2969Z" fill="#FF5A5A"/>
<path d="M48.7504 35.3672V38.4005L45.6981 45.709L42.6426 38.39V35.3672H48.7504Z" fill="#FFB487"/>
<path d="M30.0013 50.7118L34.3736 40.7851C34.0491 40.2402 33.8641 39.606 33.8641 38.9345V37.9803H26.1338V38.9346C26.1338 39.6049 25.9495 40.2382 25.626 40.7825L30.0013 50.7118Z" fill="#FFB487"/>
<path d="M39.1406 22.4453V28.7522C39.1406 33.8004 35.0482 37.893 30 37.893C24.9518 37.893 20.8594 33.8005 20.8594 28.7522V22.4453H39.1406Z" fill="#FFCDAC"/>
<path d="M30.0001 13.5273C24.9518 13.5273 20.8594 17.6198 20.8594 22.668V24.8684H25.3286C28.2994 24.8684 31.1179 23.553 33.0259 21.2759L39.1406 24.8684V22.668C39.1409 17.6198 35.0484 13.5273 30.0001 13.5273Z" fill="#F5B955"/>
<path d="M39.1455 25.2266V29.3035C39.1455 32.9279 42.0837 35.866 45.7082 35.866C49.3327 35.866 52.271 32.9279 52.271 29.3035V25.2266H39.1455Z" fill="#FFCDAC"/>
<path d="M39.1455 26.5173V24.9375C39.1455 21.3131 42.0837 18.375 45.7082 18.375C49.3327 18.375 52.271 21.3131 52.271 24.9375V26.5173H47.7472C44.9143 26.5173 42.1345 25.7482 39.7045 24.2921" fill="#878791"/>
<path d="M29.9695 57.6562C29.6612 57.6562 29.3589 57.7816 29.141 57.9996C28.9231 58.2176 28.7977 58.5199 28.7977 58.8281C28.7977 59.1363 28.9229 59.4387 29.141 59.6566C29.3589 59.8746 29.6612 60 29.9695 60C30.2777 60 30.5801 59.8746 30.7979 59.6566C31.0159 59.4387 31.1414 59.1363 31.1414 58.8281C31.1414 58.5199 31.016 58.2176 30.7979 57.9996C30.5801 57.7816 30.2777 57.6562 29.9695 57.6562Z" fill="black"/>
<path d="M53.7375 38.3282L49.8284 37.3943V35.8437C51.9982 34.4723 53.4434 32.0536 53.4434 29.3025V24.9353C53.4434 20.6705 49.9737 17.2009 45.7088 17.2009C43.4081 17.2009 41.3401 18.2118 39.922 19.8113C38.6801 15.5102 34.7078 12.3555 30.0122 12.3555H30.0121C25.3089 12.3555 21.3312 15.5201 20.0961 19.8318C18.6777 18.2205 16.6021 17.2009 14.2916 17.2009C10.0267 17.2009 6.55699 20.6706 6.55699 24.9353V29.3025C6.55699 32.0538 8.00215 34.4724 10.172 35.8437V37.3943L6.26285 38.3282C2.57531 39.209 0 42.4718 0 46.2627V54.1402C0 54.7874 0.524766 55.3121 1.17188 55.3121H10.5425V58.8277C10.5425 59.4749 11.0673 59.9996 11.7144 59.9996H24.5704C25.2175 59.9996 25.7422 59.4749 25.7422 58.8277C25.7422 58.1805 25.2175 57.6558 24.5704 57.6558H19.3388V52.4982C19.3388 51.8509 18.814 51.3263 18.1669 51.3263C17.5198 51.3263 16.995 51.8509 16.995 52.4982V57.6558H12.8862V52.3686C12.8862 48.3943 15.5855 44.9718 19.4504 44.0457L25.2141 42.6645L28.9226 51.1015C29.1096 51.527 29.5304 51.8018 29.9952 51.8018H29.9953C30.4601 51.8018 30.881 51.5272 31.068 51.1016L34.7728 42.6769L40.5197 44.0498C44.3882 44.9738 47.0898 48.397 47.0898 52.3741V53.6818C47.0299 53.8226 46.9966 53.9774 46.9966 54.1401C46.9966 54.3027 47.0299 54.4577 47.0898 54.5984V57.6558H43.005V52.4982C43.005 51.8509 42.4802 51.3263 41.8331 51.3263C41.186 51.3263 40.6613 51.8509 40.6613 52.4982V57.6558H34.922C34.2749 57.6558 33.7501 58.1805 33.7501 58.8277C33.7501 59.4749 34.2749 59.9996 34.922 59.9996H48.2617C48.9088 59.9996 49.4336 59.4749 49.4336 58.8277V55.3121H58.8281C59.4752 55.3121 60 54.7874 60 54.1402V46.2627C60 42.4718 57.4247 39.209 53.7375 38.3282ZM47.4872 38.3826L45.698 42.6668L43.9329 38.4389C43.9376 38.3964 43.941 38.3536 43.941 38.3107C43.941 38.2998 43.9409 38.2888 43.9405 38.2779V36.8307C44.5089 36.9641 45.1002 37.0369 45.7086 37.0369C46.3198 37.0369 46.9139 36.9634 47.4845 36.8288V38.3192C47.4845 38.3405 47.486 38.3615 47.4872 38.3826ZM24.7211 39.3239C23.9854 38.8676 23.1782 38.5298 22.326 38.3256L18.4032 37.3857V35.8487C19.3788 35.2339 20.2075 34.4075 20.8252 33.4339C21.7086 35.1599 23.0646 36.6053 24.7211 37.5995V39.3239ZM22.043 28.7509V26.0404H25.3404C28.3315 26.0404 31.1664 24.8582 33.2607 22.7661L37.9741 25.5351V29.026C37.8284 33.2929 34.314 36.7198 30.0121 36.7198C25.6178 36.7197 22.043 33.1449 22.043 28.7509ZM35.2657 37.6216C36.9323 36.6307 38.2978 35.1843 39.1881 33.4545C39.8045 34.4191 40.6282 35.2381 41.5968 35.8487V37.3857L37.674 38.3256C36.8167 38.5311 36.0049 38.872 35.2656 39.3325L35.2657 37.6216ZM45.7086 34.6932C42.7362 34.6932 40.3178 32.2749 40.3178 29.3025V29.1113C40.3219 28.9916 40.3248 25.9604 40.3248 25.9604C42.6286 27.0933 45.1684 27.6871 47.7477 27.6871H51.0996V29.3027C51.0995 32.275 48.6811 34.6932 45.7086 34.6932ZM45.7086 19.5447C48.6811 19.5447 51.0995 21.963 51.0995 24.9353V25.2255V25.3432H47.7476C45.2156 25.3432 42.7276 24.6784 40.5349 23.4183C41.1919 21.1821 43.2626 19.5447 45.7086 19.5447ZM22.043 22.6681C22.043 18.274 25.6179 14.6993 30.0121 14.6993C34.4061 14.6993 37.9811 18.2741 37.9811 22.6681V22.8209L33.6316 20.2656C33.1382 19.9756 32.5075 20.0847 32.1398 20.5233C30.45 22.5399 27.9717 23.6965 25.3405 23.6965H22.043V22.6681ZM8.90051 24.9353C8.90051 21.9629 11.3189 19.5447 14.2914 19.5447C16.7374 19.5447 18.8081 21.1821 19.465 23.4184C17.2723 24.6784 14.7844 25.3434 12.2523 25.3434H8.90051V25.2256V24.9353ZM8.90051 27.687H12.2524C14.8343 27.687 17.3767 27.0921 19.6822 25.957V29.3025C19.6822 32.275 17.2638 34.6932 14.2914 34.6932C11.3189 34.6932 8.90051 32.2749 8.90051 29.3025V27.687ZM14.2914 37.0369C14.8998 37.0369 15.4911 36.964 16.0595 36.8307V38.2451C16.0582 38.2671 16.0576 38.2892 16.0576 38.3112C16.0576 38.3481 16.0611 38.3848 16.0646 38.4215L14.2916 42.6668L12.5119 38.4037C12.5139 38.3757 12.5155 38.3477 12.5155 38.3193V36.8289C13.0861 36.9634 13.6802 37.0369 14.2914 37.0369ZM10.5425 52.3686V52.9683H7.03125V47.7618C7.03125 47.1146 6.50648 46.5899 5.85938 46.5899C5.21227 46.5899 4.6875 47.1146 4.6875 47.7618V52.9683H2.34375V46.2627C2.34375 43.561 4.17914 41.2356 6.80707 40.6079L10.5217 39.7204L12.9461 45.5276C11.4298 47.4113 10.5425 49.7989 10.5425 52.3686ZM18.9043 41.7665C18.2123 41.9323 17.5511 42.163 16.9232 42.4476L18.0646 39.7145L21.7798 40.6048C22.0679 40.6738 22.3487 40.7651 22.6205 40.876L18.9043 41.7665ZM29.9955 47.7182L27.0648 41.0506V38.6337C27.999 38.9129 28.9882 39.0634 30.012 39.0634C31.0221 39.0634 31.9986 38.9167 32.9218 38.6447V41.0636L29.9955 47.7182ZM37.3581 40.8849C37.6365 40.77 37.9245 40.6757 38.2202 40.6048L41.9264 39.7168L43.0725 42.462C42.4365 42.1723 41.7661 41.938 41.0641 41.7704L37.3581 40.8849ZM57.6562 52.9683H55.3125V47.7618C55.3125 47.1146 54.7877 46.5899 54.1406 46.5899C53.4935 46.5899 52.9688 47.1146 52.9688 47.7618V52.9683H49.4336V52.3742C49.4336 49.8079 48.5493 47.4236 47.0373 45.5416L49.4693 39.7183L53.1929 40.6079C55.8209 41.2356 57.6562 43.561 57.6562 46.2627V52.9683Z" fill="black"/>
<path d="M26.0693 27.1016C25.7611 27.1016 25.4588 27.227 25.2408 27.4449C25.0229 27.6629 24.8975 27.9652 24.8975 28.2734C24.8975 28.5816 25.0227 28.884 25.2408 29.102C25.4589 29.3199 25.7611 29.4453 26.0693 29.4453C26.3787 29.4453 26.6799 29.3199 26.8977 29.102C27.1169 28.884 27.2412 28.5816 27.2412 28.2734C27.2412 27.9652 27.1169 27.6629 26.8977 27.4449C26.6799 27.227 26.3775 27.1016 26.0693 27.1016Z" fill="black"/>
<path d="M33.9062 29.4453C34.2145 29.4453 34.5168 29.3199 34.7346 29.102C34.9538 28.884 35.0781 28.5816 35.0781 28.2734C35.0781 27.9652 34.9538 27.6629 34.7346 27.4449C34.5168 27.227 34.2145 27.1016 33.9062 27.1016C33.598 27.1016 33.2957 27.227 33.0777 27.4449C32.8598 27.6629 32.7344 27.9652 32.7344 28.2734C32.7344 28.5816 32.8597 28.884 33.0777 29.102C33.2958 29.3199 33.598 29.4453 33.9062 29.4453Z" fill="black"/>
<path d="M32.2556 31.3862C31.7979 30.9286 31.0561 30.9286 30.5983 31.3862C30.2517 31.7327 29.6879 31.7327 29.3414 31.3862C28.8837 30.9286 28.1419 30.9286 27.684 31.3862C27.2264 31.8438 27.2264 32.5858 27.684 33.0436C28.3143 33.6737 29.142 33.9888 29.9698 33.9888C30.7976 33.9888 31.6253 33.6738 32.2555 33.0436C32.7133 32.5858 32.7133 31.8438 32.2556 31.3862Z" fill="black"/>
<path d="M47.6504 8.67188H48.4542C49.1013 8.67188 49.6261 8.14723 49.6261 7.5C49.6261 6.85277 49.1013 6.32812 48.4542 6.32812H47.6504C47.0033 6.32812 46.4785 6.85277 46.4785 7.5C46.4785 8.14723 47.0033 8.67188 47.6504 8.67188Z" fill="black"/>
<path d="M53.3369 8.67188H54.1406C54.7878 8.67188 55.3125 8.14723 55.3125 7.5C55.3125 6.85277 54.7878 6.32812 54.1406 6.32812H53.3369C52.6897 6.32812 52.165 6.85277 52.165 7.5C52.165 8.14723 52.6896 8.67188 53.3369 8.67188Z" fill="black"/>
<path d="M50.8955 11.9171C51.5426 11.9171 52.0674 11.3924 52.0674 10.7452V9.94141C52.0674 9.29418 51.5426 8.76953 50.8955 8.76953C50.2484 8.76953 49.7236 9.29418 49.7236 9.94141V10.7452C49.7236 11.3924 50.2483 11.9171 50.8955 11.9171Z" fill="black"/>
<path d="M50.8955 6.22957C51.5426 6.22957 52.0674 5.70492 52.0674 5.0577V4.25391C52.0674 3.60668 51.5426 3.08203 50.8955 3.08203C50.2484 3.08203 49.7236 3.60668 49.7236 4.25391V5.0577C49.7236 5.70492 50.2483 6.22957 50.8955 6.22957Z" fill="black"/>
<path d="M5.79395 8.67188H6.59762C7.24473 8.67188 7.76949 8.14723 7.76949 7.5C7.76949 6.85277 7.24473 6.32812 6.59762 6.32812H5.79395C5.14684 6.32812 4.62207 6.85277 4.62207 7.5C4.62207 8.14723 5.14684 8.67188 5.79395 8.67188Z" fill="black"/>
<path d="M11.4803 8.67188H12.284C12.9311 8.67188 13.4558 8.14723 13.4558 7.5C13.4558 6.85277 12.9311 6.32812 12.284 6.32812H11.4803C10.8332 6.32812 10.3084 6.85277 10.3084 7.5C10.3084 8.14723 10.8331 8.67188 11.4803 8.67188Z" fill="black"/>
<path d="M9.03906 11.9171C9.68617 11.9171 10.2109 11.3924 10.2109 10.7452V9.94141C10.2109 9.29418 9.68617 8.76953 9.03906 8.76953C8.39195 8.76953 7.86719 9.29418 7.86719 9.94141V10.7452C7.86719 11.3924 8.39184 11.9171 9.03906 11.9171Z" fill="black"/>
<path d="M9.03906 6.22957C9.68617 6.22957 10.2109 5.70492 10.2109 5.0577V4.25391C10.2109 3.60668 9.68617 3.08203 9.03906 3.08203C8.39195 3.08203 7.86719 3.60668 7.86719 4.25391V5.0577C7.86719 5.70492 8.39184 6.22957 9.03906 6.22957Z" fill="black"/>
<path d="M30 9.8918C30.6471 9.8918 31.1719 9.36715 31.1719 8.71992V5.63672C31.1719 4.98949 30.6471 4.46484 30 4.46484C29.3529 4.46484 28.8281 4.98949 28.8281 5.63672V8.71992C28.8281 9.36715 29.3529 9.8918 30 9.8918Z" fill="black"/>
<path d="M30 2.34375C30.3082 2.34375 30.6105 2.21836 30.8284 2.00039C31.0465 1.78242 31.1719 1.48008 31.1719 1.17188C31.1719 0.863672 31.0465 0.561328 30.8284 0.343359C30.6105 0.125391 30.3082 0 30 0C29.6918 0 29.3895 0.125391 29.1715 0.343359C28.9534 0.561328 28.8281 0.863672 28.8281 1.17188C28.8281 1.48008 28.9534 1.78242 29.1715 2.00039C29.3896 2.21836 29.6918 2.34375 30 2.34375Z" fill="black"/>
<path d="M24.236 6.36005C24.4649 6.58892 24.7647 6.70329 25.0646 6.70329C25.3645 6.70329 25.6644 6.58892 25.8933 6.36005C26.3509 5.90243 26.3509 5.1604 25.8933 4.70267L24.1783 2.98774C23.7206 2.53013 22.9788 2.53013 22.5209 2.98774C22.0633 3.44536 22.0633 4.18739 22.5209 4.64513L24.236 6.36005Z" fill="black"/>
<path d="M34.878 6.69419C35.178 6.69419 35.4778 6.57981 35.7067 6.35095L37.4789 4.57872C37.9365 4.1211 37.9365 3.37907 37.4789 2.92134C37.0211 2.46372 36.2793 2.46372 35.8215 2.92134L34.0493 4.69356C33.5917 5.15118 33.5917 5.89321 34.0493 6.35095C34.2783 6.57981 34.578 6.69419 34.878 6.69419Z" fill="black"/>
</g>
<defs>
<clipPath id="clip0_10434_24678">
<rect width="60" height="60" fill="white"/>
</clipPath>
</defs>
</svg>
