<svg width="379" height="151" viewBox="0 0 379 151" fill="none" xmlns="http://www.w3.org/2000/svg">
<path d="M1.28494 6.31951C0.994611 6.02407 0.519755 6.01993 0.224318 6.31026C-0.0711201 6.60058 -0.0752637 7.07544 0.215063 7.37088L1.28494 6.31951ZM113.408 67.0687L113.162 66.3602L113.408 67.0687ZM134.686 30.7826L135.434 30.7343L134.686 30.7826ZM111.983 1.1458L111.843 1.88267L111.983 1.1458ZM91.9402 47.6908L91.1916 47.7355L91.9402 47.6908ZM127.276 121.973L127.757 121.397L127.276 121.973ZM312.507 133.372L312.501 134.122L312.507 133.372ZM378.62 150.47L374.319 142.953L369.959 150.436L378.62 150.47ZM2.3569 9.56599C2.64523 9.86338 3.12005 9.87072 3.41744 9.58239C3.71482 9.29406 3.72216 8.81924 3.43383 8.52186L2.3569 9.56599ZM7.70622 12.9667C7.4201 12.6672 6.94535 12.6563 6.64584 12.9424C6.34633 13.2285 6.33547 13.7033 6.62159 14.0028L7.70622 12.9667ZM10.8783 18.4671C11.1642 18.7668 11.6389 18.7781 11.9387 18.4923C12.2384 18.2064 12.2497 17.7317 11.9639 17.4319L10.8783 18.4671ZM16.2199 21.8789C15.9327 21.5804 15.4579 21.5713 15.1594 21.8585C14.8609 22.1456 14.8518 22.6204 15.139 22.9189L16.2199 21.8789ZM19.4366 27.3485C19.7265 27.6444 20.2014 27.6492 20.4972 27.3593C20.7931 27.0694 20.7979 26.5946 20.508 26.2987L19.4366 27.3485ZM24.8425 30.6662C24.5487 30.3743 24.0738 30.3759 23.7819 30.6697C23.4899 30.9636 23.4915 31.4385 23.7854 31.7304L24.8425 30.6662ZM28.2034 36.0452C28.5024 36.3318 28.9772 36.3218 29.2639 36.0228C29.5505 35.7238 29.5405 35.2491 29.2415 34.9624L28.2034 36.0452ZM33.7243 39.169C33.419 38.889 32.9445 38.9095 32.6646 39.2148C32.3846 39.5201 32.4052 39.9945 32.7104 40.2745L33.7243 39.169ZM37.3214 44.3937C37.6341 44.6654 38.1078 44.6321 38.3795 44.3194C38.6511 44.0067 38.6179 43.533 38.3052 43.2614L37.3214 44.3937ZM43.001 47.2145C42.6797 46.9529 42.2073 47.0014 41.9458 47.3226C41.6843 47.6438 41.7327 48.1162 42.054 48.3777L43.001 47.2145ZM46.9261 52.1973C47.2569 52.4465 47.7272 52.3803 47.9764 52.0495C48.2256 51.7186 48.1593 51.2483 47.8285 50.9992L46.9261 52.1973ZM52.8037 54.5807C52.4621 54.3464 51.9953 54.4333 51.761 54.7749C51.5267 55.1165 51.6137 55.5834 51.9553 55.8176L52.8037 54.5807ZM57.1523 59.193C57.5055 59.4093 57.9673 59.2983 58.1836 58.9451C58.3999 58.5918 58.2889 58.1301 57.9357 57.9138L57.1523 59.193ZM63.2468 60.9558C62.8811 60.7611 62.4269 60.8997 62.2322 61.2653C62.0376 61.6309 62.1761 62.0851 62.5417 62.2798L63.2468 60.9558ZM68.118 65.0105C68.4962 65.1794 68.9397 65.0096 69.1085 64.6314C69.2774 64.2531 69.1076 63.8096 68.7294 63.6408L68.118 65.0105ZM74.3961 65.9096C74.0056 65.7714 73.577 65.976 73.4388 66.3665C73.3007 66.757 73.5052 67.1855 73.8957 67.3237L74.3961 65.9096ZM79.8501 69.1392C80.2514 69.2418 80.6599 68.9996 80.7624 68.5982C80.8649 68.1969 80.6227 67.7885 80.2214 67.6859L79.8501 69.1392ZM86.1833 68.9014C85.7737 68.8393 85.3914 69.1209 85.3292 69.5304C85.267 69.9399 85.5486 70.3223 85.9582 70.3844L86.1833 68.9014ZM92.1696 70.9929C92.5834 71.011 92.9335 70.6902 92.9516 70.2764C92.9697 69.8626 92.6489 69.5125 92.2351 69.4944L92.1696 70.9929ZM98.3034 69.4246C97.8901 69.4523 97.5776 69.8098 97.6053 70.2231C97.6331 70.6364 97.9906 70.949 98.4039 70.9212L98.3034 69.4246ZM104.605 70.1575C105.013 70.0843 105.284 69.6944 105.211 69.2867C105.138 68.879 104.748 68.6079 104.34 68.6811L104.605 70.1575ZM110.247 67.2909C109.85 67.4068 109.621 67.8231 109.737 68.2208C109.853 68.6184 110.269 68.8469 110.667 68.731L110.247 67.2909ZM116.384 66.7317C116.766 66.5709 116.945 66.1311 116.784 65.7494C116.624 65.3676 116.184 65.1885 115.802 65.3493L116.384 66.7317ZM120.8 62.7856C120.449 63.0042 120.341 63.4666 120.559 63.8184C120.778 64.1703 121.24 64.2783 121.592 64.0597L120.8 62.7856ZM126.267 60.4972C126.57 60.2142 126.586 59.7396 126.303 59.4371C126.02 59.1346 125.545 59.1188 125.243 59.4017L126.267 60.4972ZM128.868 55.1813C128.635 55.5234 128.723 55.99 129.065 56.2237C129.407 56.4573 129.873 56.3694 130.107 56.0273L128.868 55.1813ZM132.887 50.8369C133.044 50.4535 132.86 50.0156 132.477 49.8588C132.093 49.7019 131.655 49.8856 131.499 50.269L132.887 50.8369ZM133.136 44.9127C133.049 45.3177 133.307 45.7166 133.712 45.8039C134.116 45.8911 134.515 45.6335 134.603 45.2286L133.136 44.9127ZM135.425 39.4487C135.457 39.0357 135.148 38.6751 134.735 38.6433C134.322 38.6115 133.961 38.9206 133.929 39.3336L135.425 39.4487ZM134.064 33.6708C134.074 34.0849 134.418 34.4125 134.832 34.4025C135.246 34.3925 135.574 34.0487 135.564 33.6346L134.064 33.6708ZM135.12 27.3061C135.07 26.8948 134.697 26.6017 134.285 26.6512C133.874 26.7008 133.581 27.0744 133.631 27.4856L135.12 27.3061ZM132.378 20.9222C132.487 21.3218 132.899 21.5574 133.299 21.4484C133.698 21.3394 133.934 20.9271 133.825 20.5275L132.378 20.9222ZM131.35 14.0446C131.16 13.6762 130.708 13.531 130.34 13.7203C129.971 13.9096 129.826 14.3617 130.015 14.7301L131.35 14.0446ZM126.267 9.33123C126.549 9.63486 127.024 9.65259 127.327 9.37083C127.631 9.08908 127.649 8.61454 127.367 8.31091L126.267 9.33123ZM121.91 3.94255C121.553 3.73302 121.093 3.85281 120.884 4.21012C120.674 4.56743 120.794 5.02695 121.151 5.23648L121.91 3.94255ZM115.081 2.65683C115.479 2.7732 115.895 2.54528 116.012 2.14775C116.128 1.75022 115.9 1.33362 115.503 1.21725L115.081 2.65683ZM109.041 0.00179219C108.627 -0.0271353 108.269 0.284381 108.24 0.697583C108.211 1.11079 108.523 1.4692 108.936 1.49813L109.041 0.00179219ZM103.255 2.018C103.653 1.90218 103.882 1.4859 103.766 1.08821C103.65 0.690516 103.234 0.462013 102.836 0.577832L103.255 2.018ZM97.3727 3.69675C97.0714 3.98096 97.0575 4.45563 97.3417 4.75695C97.6259 5.05828 98.1006 5.07215 98.4019 4.78793L97.3727 3.69675ZM95.1144 9.44087C95.2934 9.06734 95.1357 8.61941 94.7622 8.44039C94.3887 8.26137 93.9407 8.41906 93.7617 8.79259L95.1144 9.44087ZM91.7651 14.6124C91.6693 15.0154 91.9183 15.4197 92.3213 15.5155C92.7243 15.6113 93.1286 15.3623 93.2244 14.9593L91.7651 14.6124ZM92.2528 20.7864C92.2972 20.3745 91.9994 20.0047 91.5876 19.9603C91.1757 19.9159 90.8059 20.2137 90.7615 20.6255L92.2528 20.7864ZM90.3686 26.6781C90.3571 27.0922 90.6834 27.4372 91.0975 27.4487C91.5115 27.4602 91.8565 27.1339 91.868 26.7199L90.3686 26.6781ZM91.868 32.6858C91.858 32.2717 91.5143 31.9441 91.1002 31.9541C90.6861 31.9641 90.3585 32.3078 90.3684 32.7219L91.868 32.6858ZM90.6187 38.7445C90.6418 39.1581 90.9958 39.4746 91.4094 39.4514C91.823 39.4283 92.1395 39.0743 92.1164 38.6607L90.6187 38.7445ZM92.4965 44.652C92.4689 44.2387 92.1115 43.9261 91.6982 43.9537C91.2849 43.9813 90.9723 44.3387 90.9999 44.752L92.4965 44.652ZM91.4142 50.7646C91.4502 51.1772 91.8139 51.4826 92.2265 51.4466C92.6392 51.4106 92.9445 51.0469 92.9085 50.6342L91.4142 50.7646ZM93.5901 56.589C93.532 56.1788 93.1525 55.8935 92.7423 55.9516C92.3322 56.0097 92.0468 56.3892 92.1049 56.7993L93.5901 56.589ZM93.1155 62.7889C93.1951 63.1954 93.5892 63.4604 93.9957 63.3808C94.4022 63.3011 94.6671 62.907 94.5875 62.5006L93.1155 62.7889ZM95.8936 68.3521C95.7929 67.9503 95.3855 67.7063 94.9837 67.8071C94.5819 67.9078 94.3379 68.3152 94.4387 68.717L95.8936 68.3521ZM96.0697 74.5672C96.1913 74.9632 96.6109 75.1855 97.0069 75.0639C97.4028 74.9422 97.6252 74.5227 97.5035 74.1267L96.0697 74.5672ZM99.4144 79.8088C99.272 79.4198 98.8413 79.2199 98.4523 79.3623C98.0633 79.5047 97.8634 79.9354 98.0058 80.3244L99.4144 79.8088ZM100.246 85.971C100.409 86.3517 100.85 86.5282 101.231 86.3651C101.611 86.2021 101.788 85.7612 101.625 85.3804L100.246 85.971ZM104.134 90.8226C103.951 90.4514 103.501 90.2995 103.129 90.4833C102.758 90.6671 102.606 91.117 102.79 91.4882L104.134 90.8226ZM105.64 96.8558C105.844 97.2159 106.302 97.342 106.662 97.1374C107.022 96.9328 107.148 96.475 106.944 96.1148L105.64 96.8558ZM110.054 101.234C109.829 100.886 109.364 100.788 109.017 101.013C108.669 101.239 108.57 101.703 108.796 102.05L110.054 101.234ZM112.26 107.047C112.506 107.38 112.976 107.45 113.309 107.204C113.642 106.957 113.712 106.487 113.466 106.155L112.26 107.047ZM117.179 110.85C116.911 110.533 116.438 110.494 116.122 110.761C115.805 111.028 115.765 111.501 116.033 111.818L117.179 110.85ZM120.112 116.332C120.4 116.63 120.875 116.637 121.173 116.349C121.471 116.061 121.478 115.587 121.19 115.289L120.112 116.332ZM125.496 119.44C125.188 119.163 124.714 119.189 124.437 119.497C124.16 119.805 124.186 120.279 124.494 120.556L125.496 119.44ZM129.267 124.51C129.598 124.759 130.068 124.693 130.318 124.362C130.567 124.031 130.501 123.561 130.17 123.312L129.267 124.51ZM135.26 126.763C134.906 126.548 134.445 126.66 134.23 127.015C134.015 127.369 134.128 127.83 134.482 128.045L135.26 126.763ZM140.024 131.041C140.398 131.22 140.846 131.062 141.025 130.688C141.204 130.315 141.046 129.867 140.672 129.688L140.024 131.041ZM146.344 132.079C145.955 131.936 145.524 132.135 145.381 132.523C145.238 132.912 145.437 133.343 145.826 133.486L146.344 132.079ZM151.816 135.403C152.216 135.513 152.629 135.278 152.738 134.879C152.848 134.479 152.613 134.066 152.214 133.957L151.816 135.403ZM158.222 135.368C157.816 135.288 157.422 135.552 157.341 135.958C157.261 136.365 157.525 136.759 157.932 136.84L158.222 135.368ZM164.121 137.862C164.531 137.917 164.909 137.629 164.965 137.219C165.02 136.808 164.732 136.431 164.322 136.375L164.121 137.862ZM170.477 137.047C170.064 137.012 169.701 137.318 169.666 137.73C169.63 138.143 169.936 138.506 170.349 138.541L170.477 137.047ZM176.592 138.952C177.005 138.972 177.357 138.652 177.377 138.239C177.397 137.825 177.077 137.474 176.663 137.454L176.592 138.952ZM182.869 137.664C182.454 137.655 182.112 137.983 182.103 138.398C182.094 138.812 182.422 139.155 182.836 139.163L182.869 137.664ZM189.077 139.243C189.491 139.245 189.829 138.911 189.831 138.497C189.833 138.083 189.499 137.745 189.085 137.743L189.077 139.243ZM195.309 137.753C194.895 137.753 194.559 138.089 194.56 138.503C194.56 138.917 194.896 139.253 195.31 139.253L195.309 137.753ZM201.285 139.241C201.699 139.238 202.032 138.9 202.03 138.486C202.027 138.072 201.689 137.738 201.274 137.741L201.285 139.241ZM206.976 137.665C206.561 137.673 206.232 138.015 206.24 138.43C206.249 138.844 206.591 139.173 207.005 139.165L206.976 137.665ZM212.723 139.02C213.137 139.007 213.462 138.661 213.449 138.247C213.436 137.833 213.09 137.508 212.676 137.521L212.723 139.02ZM218.377 137.316C217.963 137.333 217.641 137.682 217.658 138.096C217.675 138.51 218.024 138.831 218.438 138.815L218.377 137.316ZM224.149 138.557C224.563 138.537 224.882 138.185 224.862 137.772C224.841 137.358 224.49 137.039 224.076 137.059L224.149 138.557ZM229.774 136.759C229.36 136.782 229.044 137.136 229.067 137.55C229.09 137.963 229.444 138.28 229.858 138.257L229.774 136.759ZM235.563 137.921C235.977 137.895 236.291 137.539 236.266 137.126C236.24 136.713 235.885 136.398 235.471 136.423L235.563 137.921ZM241.168 136.061C240.755 136.088 240.441 136.445 240.469 136.858C240.496 137.272 240.853 137.585 241.266 137.558L241.168 136.061ZM246.966 137.176C247.38 137.148 247.692 136.79 247.664 136.377C247.636 135.963 247.278 135.651 246.864 135.679L246.966 137.176ZM252.561 135.287C252.148 135.316 251.836 135.674 251.865 136.087C251.894 136.5 252.252 136.812 252.665 136.784L252.561 135.287ZM258.362 136.389C258.776 136.361 259.088 136.003 259.059 135.589C259.031 135.176 258.673 134.864 258.259 134.893L258.362 136.389ZM263.959 134.504C263.545 134.532 263.233 134.89 263.261 135.303C263.288 135.716 263.646 136.029 264.059 136.001L263.959 134.504ZM269.756 135.627C270.169 135.601 270.483 135.244 270.456 134.831C270.43 134.418 270.073 134.104 269.66 134.13L269.756 135.627ZM275.364 133.779C274.951 133.803 274.635 134.158 274.66 134.572C274.684 134.985 275.039 135.301 275.453 135.276L275.364 133.779ZM281.15 134.956C281.564 134.934 281.881 134.581 281.86 134.167C281.838 133.754 281.485 133.436 281.071 133.458L281.15 134.956ZM286.781 133.177C286.367 133.195 286.047 133.546 286.066 133.96C286.084 134.374 286.435 134.694 286.849 134.675L286.781 133.177ZM292.549 134.442C292.962 134.427 293.286 134.079 293.271 133.665C293.256 133.251 292.908 132.928 292.494 132.943L292.549 134.442ZM298.211 132.765C297.797 132.776 297.469 133.12 297.48 133.534C297.491 133.948 297.835 134.276 298.249 134.265L298.211 132.765ZM303.95 134.152C304.364 134.146 304.695 133.806 304.69 133.392C304.684 132.978 304.344 132.647 303.93 132.652L303.95 134.152ZM309.651 132.612C309.237 132.612 308.901 132.948 308.901 133.362C308.901 133.776 309.237 134.112 309.651 134.112L309.651 132.612ZM315.369 134.166C315.783 134.175 316.127 133.848 316.137 133.433C316.147 133.019 315.819 132.676 315.405 132.666L315.369 134.166ZM321.186 132.902C320.772 132.878 320.417 133.194 320.393 133.607C320.369 134.021 320.685 134.375 321.098 134.4L321.186 132.902ZM326.814 134.839C327.226 134.878 327.593 134.576 327.632 134.164C327.671 133.751 327.369 133.385 326.957 133.346L326.814 134.839ZM332.708 134.009C332.298 133.954 331.92 134.241 331.864 134.652C331.809 135.062 332.096 135.44 332.507 135.496L332.708 134.009ZM338.167 136.381C338.574 136.453 338.964 136.182 339.036 135.774C339.109 135.366 338.837 134.977 338.429 134.904L338.167 136.381ZM344.109 136.042C343.705 135.952 343.304 136.206 343.214 136.61C343.124 137.015 343.378 137.416 343.782 137.506L344.109 136.042ZM349.341 138.88C349.74 138.988 350.152 138.752 350.261 138.353C350.37 137.953 350.134 137.541 349.734 137.432L349.341 138.88ZM355.289 139.083C354.895 138.956 354.472 139.172 354.345 139.566C354.217 139.96 354.434 140.383 354.828 140.511L355.289 139.083ZM360.228 142.404C360.616 142.55 361.049 142.355 361.195 141.967C361.342 141.58 361.147 141.147 360.759 141.001L360.228 142.404ZM366.128 143.187C365.749 143.022 365.306 143.195 365.141 143.574C364.975 143.954 365.148 144.396 365.528 144.562L366.128 143.187ZM370.711 146.986C371.081 147.171 371.532 147.021 371.717 146.65C371.902 146.279 371.751 145.829 371.381 145.644L370.711 146.986ZM376.499 148.367C376.139 148.163 375.681 148.29 375.477 148.65C375.273 149.011 375.4 149.468 375.761 149.672L376.499 148.367ZM0.75 6.84519L0.215063 7.37088C0.922258 8.09052 1.6362 8.82266 2.3569 9.56599L2.89537 9.04393L3.43383 8.52186C2.71117 7.7765 1.99485 7.04192 1.28494 6.31951L0.75 6.84519ZM7.1639 13.4847L6.62159 14.0028C8.01785 15.4644 9.43602 16.9546 10.8783 18.4671L11.4211 17.9495L11.9639 17.4319C10.5231 15.921 9.10298 14.4288 7.70622 12.9667L7.1639 13.4847ZM15.6794 22.3989L15.139 22.9189C16.5511 24.3867 17.9838 25.8658 19.4366 27.3485L19.9723 26.8236L20.508 26.2987C19.0592 24.8201 17.6298 23.3443 16.2199 21.8789L15.6794 22.3989ZM24.3139 31.1983L23.7854 31.7304C25.2391 33.1745 26.7119 34.6152 28.2034 36.0452L28.7225 35.5038L29.2415 34.9624C27.7571 33.5393 26.2908 32.1049 24.8425 30.6662L24.3139 31.1983ZM33.2174 39.7217L32.7104 40.2745C34.229 41.6671 35.7661 43.0425 37.3214 44.3937L37.8133 43.8276L38.3052 43.2614C36.7609 41.9197 35.2339 40.5533 33.7243 39.169L33.2174 39.7217ZM42.5275 47.7961L42.054 48.3777C43.6595 49.6848 45.2836 50.9603 46.9261 52.1973L47.3773 51.5983L47.8285 50.9992C46.2022 49.7744 44.593 48.5105 43.001 47.2145L42.5275 47.7961ZM52.3795 55.1991L51.9553 55.8176C53.6685 56.9927 55.4009 58.1204 57.1523 59.193L57.544 58.5534L57.9357 57.9138C56.2079 56.8556 54.4972 55.7422 52.8037 54.5807L52.3795 55.1991ZM62.8942 61.6178L62.5417 62.2798C64.3805 63.259 66.2393 64.172 68.118 65.0105L68.4237 64.3257L68.7294 63.6408C66.8844 62.8173 65.0568 61.9197 63.2468 60.9558L62.8942 61.6178ZM74.1459 66.6166L73.8957 67.3237C75.8599 68.0187 77.8448 68.6269 79.8501 69.1392L80.0358 68.4126L80.2214 67.6859C78.262 67.1853 76.3201 66.5904 74.3961 65.9096L74.1459 66.6166ZM86.0707 69.6429L85.9582 70.3844C88.0089 70.6957 90.0795 70.9015 92.1696 70.9929L92.2023 70.2437L92.2351 69.4944C90.2001 69.4054 88.1828 69.2049 86.1833 68.9014L86.0707 69.6429ZM98.3536 70.1729L98.4039 70.9212C100.454 70.7836 102.521 70.5316 104.605 70.1575L104.473 69.4193L104.34 68.6811C102.311 69.0454 100.299 69.2907 98.3034 69.4246L98.3536 70.1729ZM110.457 68.0109L110.667 68.731C111.659 68.4418 112.655 68.1242 113.654 67.7773L113.408 67.0687L113.162 66.3602C112.187 66.6989 111.215 67.0089 110.247 67.2909L110.457 68.0109ZM113.408 67.0687L113.654 67.7773C114.599 67.4493 115.508 67.1007 116.384 66.7317L116.093 66.0405L115.802 65.3493C114.957 65.7053 114.077 66.0424 113.162 66.3602L113.408 67.0687ZM121.196 63.4226L121.592 64.0597C123.328 62.9809 124.883 61.792 126.267 60.4972L125.755 59.9495L125.243 59.4017C123.933 60.6262 122.457 61.756 120.8 62.7856L121.196 63.4226ZM129.488 55.6043L130.107 56.0273C131.215 54.4053 132.136 52.6725 132.887 50.8369L132.193 50.5529L131.499 50.269C130.786 52.0121 129.913 53.651 128.868 55.1813L129.488 55.6043ZM133.87 45.0707L134.603 45.2286C135.001 43.3787 135.271 41.4501 135.425 39.4487L134.677 39.3911L133.929 39.3336C133.78 41.2752 133.519 43.1361 133.136 44.9127L133.87 45.0707ZM134.814 33.6527L135.564 33.6346C135.541 32.6816 135.497 31.7147 135.434 30.7343L134.686 30.7826L133.937 30.8309C133.999 31.7923 134.042 32.739 134.064 33.6708L134.814 33.6527ZM134.686 30.7826L135.434 30.7343C135.359 29.5695 135.255 28.4261 135.12 27.3061L134.375 27.3958L133.631 27.4856C133.762 28.5762 133.864 29.6919 133.937 30.8309L134.686 30.7826ZM133.101 20.7248L133.825 20.5275C133.195 18.2173 132.379 16.0477 131.35 14.0446L130.682 14.3874L130.015 14.7301C130.991 16.6285 131.771 18.6987 132.378 20.9222L133.101 20.7248ZM126.817 8.82107L127.367 8.31091C125.809 6.63155 123.998 5.16669 121.91 3.94255L121.531 4.58951L121.151 5.23648C123.113 6.38676 124.809 7.75953 126.267 9.33123L126.817 8.82107ZM115.292 1.93704L115.503 1.21725C114.426 0.902163 113.3 0.632242 112.123 0.40894L111.983 1.1458L111.843 1.88267C112.975 2.09736 114.054 2.35611 115.081 2.65683L115.292 1.93704ZM111.983 1.1458L112.123 0.40894C111.048 0.205097 110.021 0.0704511 109.041 0.00179219L108.988 0.749961L108.936 1.49813C109.853 1.56235 110.821 1.68885 111.843 1.88267L111.983 1.1458ZM103.046 1.29792L102.836 0.577832C100.685 1.2041 98.8789 2.27603 97.3727 3.69675L97.8873 4.24234L98.4019 4.78793C99.7401 3.52571 101.339 2.57606 103.255 2.018L103.046 1.29792ZM94.4381 9.11673L93.7617 8.79259C92.9118 10.5659 92.2603 12.5295 91.7651 14.6124L92.4948 14.7858L93.2244 14.9593C93.7009 12.9551 94.3207 11.0969 95.1144 9.44087L94.4381 9.11673ZM91.5071 20.7059L90.7615 20.6255C90.5481 22.6041 90.4255 24.6363 90.3686 26.6781L91.1183 26.699L91.868 26.7199C91.924 24.7095 92.0445 22.7179 92.2528 20.7864L91.5071 20.7059ZM91.1182 32.7039L90.3684 32.7219C90.4179 34.7754 90.5099 36.7982 90.6187 38.7445L91.3675 38.7026L92.1164 38.6607C92.0081 36.7248 91.917 34.7187 91.868 32.6858L91.1182 32.7039ZM91.7482 44.702L90.9999 44.752C91.0696 45.7958 91.1353 46.793 91.1916 47.7355L91.9402 47.6908L92.6889 47.6461C92.6323 46.6979 92.5663 45.696 92.4965 44.652L91.7482 44.702ZM91.9402 47.6908L91.1916 47.7355C91.2518 48.7438 91.326 49.7537 91.4142 50.7646L92.1613 50.6994L92.9085 50.6342C92.8215 49.6369 92.7483 48.6407 92.6889 47.6461L91.9402 47.6908ZM92.8475 56.6941L92.1049 56.7993C92.388 58.7978 92.725 60.7958 93.1155 62.7889L93.8515 62.6447L94.5875 62.5006C94.2021 60.5333 93.8695 58.5612 93.5901 56.589L92.8475 56.6941ZM95.1662 68.5345L94.4387 68.717C94.9305 70.6776 95.4743 72.6292 96.0697 74.5672L96.7866 74.347L97.5035 74.1267C96.9158 72.2138 96.3791 70.2874 95.8936 68.3521L95.1662 68.5345ZM98.7101 80.0666L98.0058 80.3244C98.7017 82.2257 99.4486 84.1093 100.246 85.971L100.935 85.6757L101.625 85.3804C100.838 83.5437 100.101 81.6851 99.4144 79.8088L98.7101 80.0666ZM103.462 91.1554L102.79 91.4882C103.69 93.3052 104.64 95.0958 105.64 96.8558L106.292 96.4853L106.944 96.1148C105.958 94.38 105.022 92.6145 104.134 90.8226L103.462 91.1554ZM109.425 101.642L108.796 102.05C109.901 103.753 111.056 105.42 112.26 107.047L112.863 106.601L113.466 106.155C112.28 104.553 111.142 102.911 110.054 101.234L109.425 101.642ZM116.606 111.334L116.033 111.818C117.343 113.369 118.703 114.875 120.112 116.332L120.651 115.81L121.19 115.289C119.805 113.857 118.468 112.376 117.179 110.85L116.606 111.334ZM124.995 119.998L124.494 120.556C125.249 121.234 126.016 121.898 126.796 122.549L127.276 121.973L127.757 121.397C126.992 120.758 126.238 120.106 125.496 119.44L124.995 119.998ZM127.276 121.973L126.796 122.549C127.612 123.23 128.436 123.883 129.267 124.51L129.719 123.911L130.17 123.312C129.359 122.7 128.554 122.062 127.757 121.397L127.276 121.973ZM134.871 127.404L134.482 128.045C136.3 129.149 138.149 130.144 140.024 131.041L140.348 130.365L140.672 129.688C138.84 128.812 137.035 127.84 135.26 126.763L134.871 127.404ZM146.085 132.782L145.826 133.486C147.799 134.213 149.797 134.848 151.816 135.403L152.015 134.68L152.214 133.957C150.233 133.412 148.276 132.79 146.344 132.079L146.085 132.782ZM158.077 136.104L157.932 136.84C159.979 137.244 162.043 137.581 164.121 137.862L164.221 137.118L164.322 136.375C162.271 136.098 160.237 135.766 158.222 135.368L158.077 136.104ZM170.413 137.794L170.349 138.541C172.42 138.718 174.502 138.852 176.592 138.952L176.628 138.203L176.663 137.454C174.59 137.354 172.527 137.222 170.477 137.047L170.413 137.794ZM182.852 138.414L182.836 139.163C184.913 139.208 186.994 139.231 189.077 139.243L189.081 138.493L189.085 137.743C187.008 137.731 184.935 137.708 182.869 137.664L182.852 138.414ZM195.31 138.503L195.31 139.253C196.349 139.252 197.386 139.251 198.424 139.251V138.501V137.751C197.386 137.751 196.347 137.752 195.309 137.753L195.31 138.503ZM198.424 138.501V139.251C199.378 139.251 200.331 139.248 201.285 139.241L201.28 138.491L201.274 137.741C200.324 137.748 199.374 137.751 198.424 137.751V138.501ZM206.99 138.415L207.005 139.165C208.912 139.127 210.817 139.079 212.723 139.02L212.7 138.27L212.676 137.521C210.776 137.579 208.876 137.628 206.976 137.665L206.99 138.415ZM218.407 138.065L218.438 138.815C220.342 138.737 222.246 138.651 224.149 138.557L224.113 137.808L224.076 137.059C222.176 137.153 220.277 137.239 218.377 137.316L218.407 138.065ZM229.816 137.508L229.858 138.257C231.76 138.15 233.662 138.038 235.563 137.921L235.517 137.172L235.471 136.423C233.572 136.54 231.673 136.653 229.774 136.759L229.816 137.508ZM241.217 136.809L241.266 137.558C243.167 137.433 245.067 137.305 246.966 137.176L246.915 136.428L246.864 135.679C244.966 135.809 243.067 135.936 241.168 136.061L241.217 136.809ZM252.613 136.035L252.665 136.784C254.565 136.652 256.464 136.52 258.362 136.389L258.311 135.641L258.259 134.893C256.36 135.024 254.461 135.156 252.561 135.287L252.613 136.035ZM264.009 135.253L264.059 136.001C265.958 135.874 267.857 135.748 269.756 135.627L269.708 134.879L269.66 134.13C267.759 134.252 265.859 134.377 263.959 134.504L264.009 135.253ZM275.408 134.527L275.453 135.276C277.352 135.164 279.251 135.057 281.15 134.956L281.111 134.207L281.071 133.458C279.168 133.559 277.266 133.666 275.364 133.779L275.408 134.527ZM286.815 133.926L286.849 134.675C288.749 134.589 290.649 134.511 292.549 134.442L292.521 133.693L292.494 132.943C290.589 133.012 288.685 133.09 286.781 133.177L286.815 133.926ZM298.23 133.515L298.249 134.265C300.149 134.216 302.05 134.178 303.95 134.152L303.94 133.402L303.93 132.652C302.023 132.678 300.116 132.716 298.211 132.765L298.23 133.515ZM309.651 133.362L309.651 134.112C310.601 134.112 311.551 134.115 312.501 134.122L312.507 133.372L312.512 132.622C311.558 132.615 310.604 132.612 309.651 132.612L309.651 133.362ZM312.507 133.372L312.501 134.122C313.459 134.128 314.415 134.143 315.369 134.166L315.387 133.416L315.405 132.666C314.442 132.643 313.478 132.628 312.512 132.622L312.507 133.372ZM321.142 133.651L321.098 134.4C323.012 134.512 324.917 134.657 326.814 134.839L326.885 134.092L326.957 133.346C325.041 133.162 323.117 133.015 321.186 132.902L321.142 133.651ZM332.607 134.752L332.507 135.496C334.403 135.752 336.29 136.047 338.167 136.381L338.298 135.642L338.429 134.904C336.532 134.567 334.625 134.269 332.708 134.009L332.607 134.752ZM343.946 136.774L343.782 137.506C345.647 137.922 347.5 138.38 349.341 138.88L349.537 138.156L349.734 137.432C347.871 136.926 345.995 136.463 344.109 136.042L343.946 136.774ZM355.058 139.797L354.828 140.511C356.641 141.097 358.442 141.727 360.228 142.404L360.494 141.702L360.759 141.001C358.949 140.316 357.126 139.677 355.289 139.083L355.058 139.797ZM365.828 143.875L365.528 144.562C367.27 145.323 368.997 146.131 370.711 146.986L371.046 146.315L371.381 145.644C369.644 144.777 367.893 143.959 366.128 143.187L365.828 143.875Z" fill="url(#paint0_linear_10434_24851)"/>
<defs>
<linearGradient id="paint0_linear_10434_24851" x1="189.685" y1="0.697754" x2="189.685" y2="150.47" gradientUnits="userSpaceOnUse">
<stop stop-color="#F98B2D"/>
<stop offset="1" stop-color="#00923F"/>
</linearGradient>
</defs>
</svg>
