<svg width="302" height="192" viewBox="0 0 302 192" fill="none" xmlns="http://www.w3.org/2000/svg">
<path d="M0.652199 189.601C0.241529 189.655 -0.0475554 190.032 0.00651086 190.443C0.0605771 190.853 0.43732 191.142 0.84799 191.088L0.652199 189.601ZM102.617 143.119L103.331 143.349L102.617 143.119ZM88.4009 108.989L88.8128 108.362L88.4009 108.989ZM55.588 109.248L56.0924 109.803L55.588 109.248ZM77.6589 147.939L77.2441 148.563L77.6589 147.939ZM148.494 162.427L148.665 163.157L148.494 162.427ZM254.476 38.4314L255.072 38.887L254.476 38.4314ZM301.45 1.06688L292.856 -8.9794e-05L296.229 7.97627L301.45 1.06688ZM3.79243 190.712C4.20349 190.661 4.49531 190.287 4.44424 189.876C4.39317 189.465 4.01855 189.173 3.60749 189.224L3.79243 190.712ZM9.5234 188.515C9.11198 188.563 8.81741 188.936 8.86545 189.347C8.91349 189.759 9.28596 190.053 9.69738 190.005L9.5234 188.515ZM15.619 189.316C16.0304 189.268 16.3249 188.896 16.2767 188.484C16.2286 188.073 15.856 187.778 15.4446 187.826L15.619 189.316ZM21.3582 187.118C20.9471 187.168 20.655 187.543 20.7058 187.954C20.7567 188.365 21.1311 188.657 21.5422 188.606L21.3582 187.118ZM27.4584 187.842C27.8688 187.786 28.1564 187.408 28.1006 186.997C28.0449 186.587 27.6669 186.299 27.2565 186.355L27.4584 187.842ZM33.1444 185.507C32.735 185.569 32.454 185.952 32.5168 186.362C32.5796 186.771 32.9624 187.052 33.3718 186.989L33.1444 185.507ZM39.2663 186.02C39.6742 185.948 39.9466 185.559 39.8746 185.151C39.8027 184.743 39.4136 184.471 39.0057 184.543L39.2663 186.02ZM44.8387 183.433C44.4329 183.516 44.1715 183.913 44.2549 184.318C44.3382 184.724 44.7347 184.985 45.1404 184.902L44.8387 183.433ZM50.9821 183.602C51.3848 183.505 51.6325 183.099 51.5354 182.697C51.4383 182.294 51.0332 182.046 50.6305 182.143L50.9821 183.602ZM56.363 180.64C55.9646 180.754 55.7337 181.169 55.8471 181.567C55.9606 181.966 56.3755 182.196 56.7739 182.083L56.363 180.64ZM62.4998 180.305C62.8922 180.172 63.1027 179.746 62.9699 179.354C62.8372 178.961 62.4115 178.751 62.0191 178.884L62.4998 180.305ZM67.5656 176.832C67.1816 176.987 66.9961 177.424 67.1512 177.808C67.3064 178.192 67.7436 178.378 68.1276 178.223L67.5656 176.832ZM73.6193 175.789C73.9919 175.608 74.1472 175.159 73.9662 174.787C73.7852 174.414 73.3365 174.259 72.9639 174.44L73.6193 175.789ZM78.1654 171.658C77.8084 171.868 77.6894 172.328 77.8995 172.685C78.1096 173.042 78.5693 173.161 78.9263 172.951L78.1654 171.658ZM83.9738 169.666C84.3099 169.423 84.3861 168.955 84.1441 168.619C83.902 168.282 83.4333 168.206 83.0972 168.448L83.9738 169.666ZM87.6841 164.774C87.375 165.05 87.348 165.524 87.6238 165.833C87.8996 166.142 88.3737 166.169 88.6827 165.893L87.6841 164.774ZM92.9534 161.625C93.2289 161.315 93.2015 160.841 92.8922 160.566C92.5829 160.29 92.1088 160.318 91.8333 160.627L92.9534 161.625ZM95.4632 156.021C95.2271 156.361 95.3116 156.828 95.6519 157.064C95.9922 157.3 96.4595 157.216 96.6956 156.876L95.4632 156.021ZM99.8291 151.712C100.022 151.345 99.8814 150.892 99.5149 150.699C99.1484 150.506 98.6948 150.646 98.5019 151.013L99.8291 151.712ZM100.922 145.671C100.773 146.058 100.966 146.492 101.352 146.64C101.739 146.789 102.173 146.596 102.322 146.21L100.922 145.671ZM104.243 140.039C104.335 139.635 104.082 139.233 103.678 139.141C103.274 139.049 102.873 139.302 102.781 139.706L104.243 140.039ZM103.538 133.207C103.54 133.621 103.877 133.956 104.291 133.954C104.705 133.953 105.04 133.616 105.038 133.201L103.538 133.207ZM104.049 126.356C103.931 125.959 103.513 125.732 103.116 125.85C102.719 125.968 102.493 126.386 102.611 126.783L104.049 126.356ZM99.8865 120.884C100.11 121.233 100.573 121.335 100.922 121.112C101.271 120.889 101.373 120.425 101.15 120.076L99.8865 120.884ZM96.8099 114.744C96.5171 114.451 96.0422 114.451 95.7493 114.744C95.4564 115.037 95.4564 115.511 95.7492 115.804L96.8099 114.744ZM90.7187 111.515C91.0518 111.762 91.5214 111.691 91.7676 111.358C92.0138 111.025 91.9433 110.555 91.6102 110.309L90.7187 111.515ZM86.2357 106.767C85.8775 106.559 85.4185 106.681 85.2106 107.039C85.0027 107.397 85.1247 107.856 85.4829 108.064L86.2357 106.767ZM80.2248 105.478C80.6095 105.631 81.0458 105.443 81.1993 105.059C81.3527 104.674 81.1653 104.238 80.7805 104.084L80.2248 105.478ZM74.9022 102.387C74.4941 102.317 74.106 102.591 74.0355 102.999C73.9649 103.407 74.2386 103.795 74.6467 103.866L74.9022 102.387ZM68.8992 103.641C69.3112 103.599 69.611 103.231 69.5687 102.819C69.5264 102.407 69.1581 102.107 68.746 102.149L68.8992 103.641ZM62.7675 103.676C62.3851 103.835 62.2042 104.274 62.3635 104.656C62.5228 105.039 62.9618 105.219 63.3442 105.06L62.7675 103.676ZM58.3418 107.946C58.6739 107.698 58.7426 107.228 58.4952 106.896C58.2477 106.564 57.7779 106.495 57.4457 106.743L58.3418 107.946ZM52.7195 111.174C52.4588 111.496 52.5082 111.968 52.8301 112.229C53.1519 112.489 53.6242 112.44 53.885 112.118L52.7195 111.174ZM51.1652 117.64C51.2428 117.233 50.9759 116.84 50.569 116.762C50.1622 116.685 49.7694 116.952 49.6918 117.359L51.1652 117.64ZM50.3902 124.238C50.5366 124.626 50.9694 124.821 51.3569 124.675C51.7444 124.529 51.9398 124.096 51.7935 123.708L50.3902 124.238ZM55.0259 129.165C54.7684 128.84 54.2967 128.786 53.9722 129.044C53.6478 129.301 53.5936 129.773 53.8511 130.097L55.0259 129.165ZM58.4646 134.97C58.7702 135.249 59.2446 135.228 59.5243 134.923C59.8039 134.617 59.783 134.143 59.4775 133.863L58.4646 134.97ZM64.5047 138.033C64.1753 137.781 63.7047 137.845 63.4535 138.174C63.2024 138.504 63.2658 138.974 63.5952 139.225L64.5047 138.033ZM68.985 143.098C69.327 143.331 69.7937 143.244 70.0274 142.902C70.2612 142.56 70.1735 142.093 69.8315 141.859L68.985 143.098ZM75.3168 145.503C74.9701 145.277 74.5053 145.374 74.2787 145.721C74.052 146.067 74.1494 146.532 74.4961 146.759L75.3168 145.503ZM79.8681 150.246C80.2203 150.464 80.6825 150.355 80.9005 150.003C81.1185 149.651 81.0097 149.188 80.6575 148.97L79.8681 150.246ZM85.9784 152.037C85.6133 151.842 85.1588 151.979 84.9632 152.344C84.7676 152.709 84.905 153.164 85.2701 153.36L85.9784 152.037ZM90.8523 156.133C91.2288 156.306 91.674 156.141 91.8469 155.764C92.0198 155.388 91.8548 154.943 91.4783 154.77L90.8523 156.133ZM97.1354 157.162C96.7492 157.012 96.3148 157.204 96.1652 157.59C96.0155 157.976 96.2074 158.411 96.5936 158.56L97.1354 157.162ZM102.473 160.633C102.868 160.759 103.289 160.541 103.415 160.146C103.541 159.751 103.323 159.329 102.928 159.204L102.473 160.633ZM108.834 160.883C108.433 160.782 108.025 161.026 107.925 161.428C107.824 161.83 108.068 162.237 108.47 162.338L108.834 160.883ZM114.564 163.66C114.971 163.735 115.362 163.465 115.437 163.058C115.511 162.651 115.242 162.26 114.834 162.185L114.564 163.66ZM120.904 163.091C120.493 163.044 120.121 163.339 120.073 163.751C120.026 164.162 120.321 164.534 120.733 164.581L120.904 163.091ZM126.953 165.08C127.366 165.098 127.717 164.778 127.735 164.364C127.754 163.95 127.434 163.6 127.02 163.581L126.953 165.08ZM133.152 163.633C132.738 163.645 132.412 163.99 132.423 164.404C132.435 164.818 132.78 165.144 133.195 165.132L133.152 163.633ZM139.425 164.715C139.837 164.671 140.136 164.301 140.092 163.89C140.048 163.478 139.679 163.179 139.267 163.223L139.425 164.715ZM145.327 162.33C144.92 162.407 144.653 162.8 144.73 163.207C144.807 163.614 145.2 163.881 145.607 163.804L145.327 162.33ZM151.886 162.302C152.283 162.184 152.509 161.767 152.391 161.37C152.273 160.973 151.856 160.747 151.459 160.865L151.886 162.302ZM157.542 158.649C157.162 158.814 156.987 159.255 157.152 159.635C157.317 160.015 157.759 160.19 158.139 160.025L157.542 158.649ZM164.074 157.02C164.432 156.812 164.553 156.353 164.345 155.995C164.137 155.636 163.678 155.515 163.32 155.723L164.074 157.02ZM168.744 152.165C168.41 152.409 168.337 152.879 168.582 153.213C168.827 153.547 169.296 153.619 169.63 153.374L168.744 152.165ZM174.793 149.207C175.103 148.933 175.133 148.459 174.859 148.148C174.585 147.837 174.111 147.808 173.8 148.082L174.793 149.207ZM178.516 143.589C178.226 143.885 178.232 144.36 178.528 144.65C178.824 144.94 179.298 144.934 179.588 144.638L178.516 143.589ZM184.071 139.78C184.344 139.468 184.312 138.994 184 138.721C183.689 138.449 183.215 138.48 182.942 138.792L184.071 139.78ZM187.143 133.78C186.883 134.102 186.933 134.574 187.255 134.835C187.578 135.095 188.05 135.045 188.31 134.722L187.143 133.78ZM192.379 129.542C192.632 129.214 192.57 128.743 192.242 128.49C191.913 128.238 191.442 128.3 191.19 128.628L192.379 129.542ZM195.156 123.4C194.907 123.731 194.973 124.201 195.304 124.45C195.635 124.699 196.105 124.633 196.355 124.302L195.156 123.4ZM200.211 119.159C200.457 118.826 200.387 118.356 200.054 118.11C199.721 117.864 199.252 117.934 199.005 118.267L200.211 119.159ZM202.692 113.203C202.451 113.54 202.528 114.008 202.865 114.25C203.201 114.491 203.67 114.414 203.911 114.077L202.692 113.203ZM207.537 108.944C207.774 108.604 207.69 108.136 207.351 107.9C207.011 107.663 206.543 107.746 206.307 108.086L207.537 108.944ZM209.86 102.925C209.627 103.267 209.716 103.733 210.058 103.967C210.401 104.2 210.867 104.111 211.1 103.769L209.86 102.925ZM214.611 98.5602C214.842 98.2158 214.749 97.7501 214.404 97.52C214.06 97.2899 213.594 97.3825 213.364 97.7269L214.611 98.5602ZM216.83 92.5017C216.602 92.8476 216.698 93.3127 217.044 93.5406C217.389 93.7685 217.855 93.6729 218.082 93.327L216.83 92.5017ZM221.525 88.0771C221.752 87.7303 221.654 87.2656 221.307 87.0391C220.96 86.8126 220.496 86.9101 220.269 87.2569L221.525 88.0771ZM223.694 82.0005C223.468 82.3477 223.566 82.8123 223.913 83.0381C224.261 83.264 224.725 83.1656 224.951 82.8184L223.694 82.0005ZM228.372 77.5586C228.598 77.2114 228.5 76.7468 228.153 76.5208C227.806 76.2948 227.341 76.393 227.115 76.7402L228.372 77.5586ZM230.546 71.4838C230.319 71.8303 230.416 72.2952 230.762 72.5221C231.109 72.749 231.574 72.6521 231.801 72.3055L230.546 71.4838ZM235.248 67.0671C235.477 66.7217 235.382 66.2564 235.037 66.0277C234.692 65.7991 234.226 65.8937 233.998 66.2391L235.248 67.0671ZM237.482 61.0142C237.251 61.3579 237.342 61.8239 237.686 62.0551C238.03 62.2862 238.496 62.195 238.727 61.8512L237.482 61.0142ZM242.248 56.6661C242.483 56.3246 242.396 55.8578 242.054 55.6234C241.713 55.3889 241.246 55.4758 241.012 55.8173L242.248 56.6661ZM244.597 50.6569C244.359 50.9956 244.44 51.4635 244.779 51.7019C245.118 51.9404 245.585 51.8591 245.824 51.5203L244.597 50.6569ZM249.465 46.4227C249.708 46.0874 249.633 45.6184 249.298 45.3752C248.962 45.1321 248.494 45.2068 248.25 45.5421L249.465 46.4227ZM251.982 40.4821C251.733 40.8134 251.8 41.2836 252.132 41.5322C252.463 41.7808 252.933 41.7138 253.182 41.3825L251.982 40.4821ZM256.932 36.5036C257.19 36.1796 257.137 35.7077 256.813 35.4496C256.489 35.1915 256.017 35.2448 255.759 35.5688L256.932 36.5036ZM259.664 30.8732C259.392 31.1859 259.425 31.6596 259.738 31.9312C260.051 32.2028 260.525 32.1694 260.796 31.8566L259.664 30.8732ZM264.858 27.3855C265.144 27.0854 265.132 26.6107 264.832 26.3252C264.532 26.0397 264.057 26.0515 263.772 26.3516L264.858 27.3855ZM268.09 22.0264C267.79 22.3123 267.779 22.787 268.064 23.0868C268.35 23.3866 268.825 23.3979 269.125 23.112L268.09 22.0264ZM273.599 19.0599C273.913 18.7899 273.949 18.3164 273.679 18.0023C273.409 17.6881 272.935 17.6522 272.621 17.9221L273.599 19.0599ZM277.367 14.0639C277.038 14.3162 276.976 14.7871 277.229 15.1155C277.481 15.444 277.952 15.5057 278.28 15.2534L277.367 14.0639ZM283.166 11.7164C283.509 11.4833 283.597 11.0167 283.364 10.6743C283.131 10.332 282.665 10.2434 282.322 10.4765L283.166 11.7164ZM287.48 7.18368C287.125 7.39605 287.009 7.85648 287.221 8.21214C287.433 8.56777 287.894 8.68394 288.249 8.47157L287.48 7.18368ZM293.517 5.53954C293.885 5.34923 294.029 4.89673 293.839 4.52881C293.648 4.16089 293.196 4.01691 292.828 4.20719L293.517 5.53954ZM298.349 1.56428C297.97 1.73152 297.798 2.17429 297.965 2.55324C298.132 2.9322 298.575 3.10384 298.954 2.93662L298.349 1.56428ZM0.750095 190.345L0.84799 191.088C1.81491 190.961 2.79679 190.836 3.79243 190.712L3.69996 189.968L3.60749 189.224C2.60889 189.348 1.62334 189.473 0.652199 189.601L0.750095 190.345ZM9.61039 189.26L9.69738 190.005C11.6328 189.779 13.6147 189.551 15.619 189.316L15.5318 188.571L15.4446 187.826C13.4369 188.061 11.4657 188.288 9.5234 188.515L9.61039 189.26ZM21.4502 187.862L21.5422 188.606C23.4965 188.365 25.471 188.111 27.4584 187.842L27.3574 187.098L27.2565 186.355C25.2763 186.624 23.3079 186.877 21.3582 187.118L21.4502 187.862ZM33.2581 186.248L33.3718 186.989C35.333 186.688 37.3 186.367 39.2663 186.02L39.136 185.282L39.0057 184.543C37.0518 184.888 35.0959 185.207 33.1444 185.507L33.2581 186.248ZM44.9895 184.167L45.1404 184.902C47.097 184.5 49.0464 184.068 50.9821 183.602L50.8063 182.873L50.6305 182.143C48.7129 182.606 46.7801 183.034 44.8387 183.433L44.9895 184.167ZM56.5684 181.362L56.7739 182.083C58.7057 181.533 60.6167 180.942 62.4998 180.305L62.2595 179.594L62.0191 178.884C60.1609 179.512 58.2733 180.096 56.363 180.64L56.5684 181.362ZM67.8466 177.527L68.1276 178.223C69.9972 177.467 71.8304 176.658 73.6193 175.789L73.2916 175.114L72.9639 174.44C71.2079 175.293 69.406 176.088 67.5656 176.832L67.8466 177.527ZM78.5458 172.305L78.9263 172.951C80.6664 171.927 82.3517 170.834 83.9738 169.666L83.5355 169.057L83.0972 168.448C81.5148 169.588 79.8683 170.656 78.1654 171.658L78.5458 172.305ZM88.1834 165.334L88.6827 165.893C90.1827 164.555 91.6092 163.134 92.9534 161.625L92.3934 161.126L91.8333 160.627C90.5287 162.092 89.143 163.472 87.6841 164.774L88.1834 165.334ZM96.0794 156.448L96.6956 156.876C97.828 155.243 98.875 153.524 99.8291 151.712L99.1655 151.362L98.5019 151.013C97.5764 152.771 96.561 154.438 95.4632 156.021L96.0794 156.448ZM101.622 145.94L102.322 146.21C102.68 145.277 103.017 144.324 103.331 143.349L102.617 143.119L101.903 142.889C101.598 143.838 101.27 144.765 100.922 145.671L101.622 145.94ZM102.617 143.119L103.331 143.349C103.694 142.222 103.998 141.119 104.243 140.039L103.512 139.873L102.781 139.706C102.545 140.741 102.254 141.802 101.903 142.889L102.617 143.119ZM104.288 133.204L105.038 133.201C105.029 130.793 104.69 128.515 104.049 126.356L103.33 126.569L102.611 126.783C103.211 128.802 103.529 130.938 103.538 133.207L104.288 133.204ZM100.518 120.48L101.15 120.076C99.9494 118.199 98.4925 116.426 96.8099 114.744L96.2796 115.274L95.7492 115.804C97.3659 117.421 98.7516 119.11 99.8865 120.884L100.518 120.48ZM91.1644 110.912L91.6102 110.309C90.7146 109.647 89.7814 108.999 88.8128 108.362L88.4009 108.989L87.9891 109.616C88.9364 110.238 89.8469 110.871 90.7187 111.515L91.1644 110.912ZM88.4009 108.989L88.8128 108.362C87.9541 107.798 87.095 107.265 86.2357 106.767L85.8593 107.415L85.4829 108.064C86.3165 108.548 87.1519 109.066 87.9891 109.616L88.4009 108.989ZM80.5027 104.781L80.7805 104.084C78.8206 103.302 76.8597 102.726 74.9022 102.387L74.7745 103.127L74.6467 103.866C76.4882 104.184 78.3483 104.729 80.2248 105.478L80.5027 104.781ZM68.8226 102.895L68.746 102.149C66.734 102.356 64.7392 102.854 62.7675 103.676L63.0558 104.368L63.3442 105.06C65.1811 104.295 67.0332 103.833 68.8992 103.641L68.8226 102.895ZM57.8937 107.344L57.4457 106.743C56.6527 107.334 55.8653 107.983 55.0836 108.693L55.588 109.248L56.0924 109.803C56.8399 109.124 57.5898 108.506 58.3418 107.946L57.8937 107.344ZM55.588 109.248L55.0836 108.693C54.1793 109.515 53.3935 110.342 52.7195 111.174L53.3023 111.646L53.885 112.118C54.5061 111.352 55.2385 110.579 56.0924 109.803L55.588 109.248ZM50.4285 117.499L49.6918 117.359C49.2441 119.706 49.5496 122.013 50.3902 124.238L51.0919 123.973L51.7935 123.708C51.0334 121.696 50.7777 119.671 51.1652 117.64L50.4285 117.499ZM54.4385 129.631L53.8511 130.097C55.187 131.78 56.7594 133.409 58.4646 134.97L58.9711 134.416L59.4775 133.863C57.8144 132.341 56.3004 130.77 55.0259 129.165L54.4385 129.631ZM64.0499 138.629L63.5952 139.225C65.3778 140.585 67.2026 141.879 68.985 143.098L69.4083 142.478L69.8315 141.859C68.0633 140.65 66.2607 139.372 64.5047 138.033L64.0499 138.629ZM74.9065 146.131L74.4961 146.759C75.4677 147.394 76.3889 147.996 77.2441 148.563L77.6589 147.939L78.0738 147.314C77.2132 146.742 76.287 146.137 75.3168 145.503L74.9065 146.131ZM77.6589 147.939L77.2441 148.563C78.1073 149.137 78.9823 149.698 79.8681 150.246L80.2628 149.608L80.6575 148.97C79.7852 148.43 78.9237 147.878 78.0738 147.314L77.6589 147.939ZM85.6243 152.698L85.2701 153.36C87.0955 154.337 88.9581 155.263 90.8523 156.133L91.1653 155.451L91.4783 154.77C89.6118 153.913 87.7768 153.001 85.9784 152.037L85.6243 152.698ZM96.8645 157.861L96.5936 158.56C98.529 159.31 100.49 160.002 102.473 160.633L102.7 159.918L102.928 159.204C100.975 158.582 99.0424 157.9 97.1354 157.162L96.8645 157.861ZM108.652 161.611L108.47 162.338C110.487 162.844 112.52 163.286 114.564 163.66L114.699 162.923L114.834 162.185C112.823 161.816 110.821 161.381 108.834 160.883L108.652 161.611ZM120.818 163.836L120.733 164.581C122.802 164.82 124.877 164.987 126.953 165.08L126.986 164.33L127.02 163.581C124.98 163.49 122.94 163.325 120.904 163.091L120.818 163.836ZM133.173 164.382L133.195 165.132C135.278 165.073 137.357 164.935 139.425 164.715L139.346 163.969L139.267 163.223C137.238 163.439 135.198 163.574 133.152 163.633L133.173 164.382ZM145.467 163.067L145.607 163.804C146.63 163.61 147.65 163.394 148.665 163.157L148.494 162.427L148.323 161.696C147.329 161.929 146.33 162.14 145.327 162.33L145.467 163.067ZM148.494 162.427L148.665 163.157C149.76 162.901 150.834 162.615 151.886 162.302L151.673 161.584L151.459 160.865C150.435 161.169 149.39 161.447 148.323 161.696L148.494 162.427ZM157.84 159.337L158.139 160.025C160.2 159.13 162.175 158.123 164.074 157.02L163.697 156.371L163.32 155.723C161.469 156.799 159.547 157.778 157.542 158.649L157.84 159.337ZM169.187 152.77L169.63 153.374C171.416 152.066 173.133 150.672 174.793 149.207L174.297 148.644L173.8 148.082C172.171 149.52 170.489 150.885 168.744 152.165L169.187 152.77ZM179.052 144.114L179.588 144.638C181.124 143.069 182.615 141.445 184.071 139.78L183.507 139.286L182.942 138.792C181.501 140.439 180.029 142.043 178.516 143.589L179.052 144.114ZM187.727 134.251L188.31 134.722C189.686 133.018 191.039 131.287 192.379 129.542L191.785 129.085L191.19 128.628C189.855 130.366 188.509 132.088 187.143 133.78L187.727 134.251ZM195.755 123.851L196.355 124.302C197.014 123.427 197.671 122.552 198.33 121.678L197.731 121.227L197.132 120.775C196.473 121.65 195.814 122.526 195.156 123.4L195.755 123.851ZM197.731 121.227L198.33 121.678C198.961 120.841 199.588 120.001 200.211 119.159L199.608 118.713L199.005 118.267C198.384 119.105 197.76 119.942 197.132 120.775L197.731 121.227ZM203.301 113.64L203.911 114.077C205.132 112.374 206.34 110.662 207.537 108.944L206.922 108.515L206.307 108.086C205.113 109.8 203.908 111.506 202.692 113.203L203.301 113.64ZM210.48 103.347L211.1 103.769C212.279 102.038 213.448 100.301 214.611 98.5602L213.988 98.1436L213.364 97.7269C212.203 99.4645 211.036 101.197 209.86 102.925L210.48 103.347ZM217.456 92.9144L218.082 93.327C219.234 91.5794 220.381 89.8289 221.525 88.0771L220.897 87.667L220.269 87.2569C219.126 89.0075 217.98 90.7562 216.83 92.5017L217.456 92.9144ZM224.322 82.4094L224.951 82.8184C226.092 81.0645 227.231 79.3111 228.372 77.5586L227.744 77.1494L227.115 76.7402C225.974 78.4931 224.834 80.2473 223.694 82.0005L224.322 82.4094ZM231.173 71.8947L231.801 72.3055C232.946 70.5563 234.095 68.8097 235.248 67.0671L234.623 66.6531L233.998 66.2391C232.842 67.9842 231.693 69.7329 230.546 71.4838L231.173 71.8947ZM238.105 61.4327L238.727 61.8512C239.893 60.117 241.066 58.3882 242.248 56.6661L241.63 56.2417L241.012 55.8173C239.827 57.5438 238.651 59.2765 237.482 61.0142L238.105 61.4327ZM245.211 51.0886L245.824 51.5203C247.026 49.8126 248.239 48.1129 249.465 46.4227L248.857 45.9824L248.25 45.5421C247.02 47.2385 245.803 48.9439 244.597 50.6569L245.211 51.0886ZM252.582 40.9323L253.182 41.3825C253.808 40.5479 254.438 39.716 255.072 38.887L254.476 38.4314L253.88 37.9758C253.244 38.8085 252.611 39.644 251.982 40.4821L252.582 40.9323ZM254.476 38.4314L255.072 38.887C255.685 38.0847 256.306 37.2902 256.932 36.5036L256.346 36.0362L255.759 35.5688C255.126 36.3634 254.5 37.1658 253.88 37.9758L254.476 38.4314ZM260.23 31.3649L260.796 31.8566C262.121 30.3307 263.475 28.8395 264.858 27.3855L264.315 26.8686L263.772 26.3516C262.372 27.8226 261.003 29.3306 259.664 30.8732L260.23 31.3649ZM268.607 22.5692L269.125 23.112C270.584 21.7203 272.075 20.3689 273.599 19.0599L273.11 18.491L272.621 17.9221C271.078 19.2485 269.567 20.6174 268.09 22.0264L268.607 22.5692ZM277.823 14.6586L278.28 15.2534C279.875 14.0286 281.503 12.8488 283.166 11.7164L282.744 11.0964L282.322 10.4765C280.635 11.6254 278.983 12.822 277.367 14.0639L277.823 14.6586ZM287.865 7.82764L288.249 8.47157C289.969 7.44467 291.725 6.46656 293.517 5.53954L293.172 4.87337L292.828 4.20719C291.008 5.14842 289.226 6.14138 287.48 7.18368L287.865 7.82764Z" fill="url(#paint0_linear_10434_24852)"/>
<defs>
<linearGradient id="paint0_linear_10434_24852" x1="96.3752" y1="54.4677" x2="201.51" y2="133.692" gradientUnits="userSpaceOnUse">
<stop stop-color="#F98B2D"/>
<stop offset="1" stop-color="#00923F"/>
</linearGradient>
</defs>
</svg>
