<svg width="60" height="60" viewBox="0 0 60 60" fill="none" xmlns="http://www.w3.org/2000/svg">
<path d="M17.7456 3.48828C9.87956 3.48828 3.50293 9.86491 3.50293 17.731V24.2116H31.9882V17.731C31.9882 9.86491 25.6116 3.48828 17.7456 3.48828Z" fill="#515262"/>
<path opacity="0.1" d="M17.7321 3.40625H17.7389C16.687 3.40625 15.6519 3.56176 14.665 3.7782C21.0583 5.17988 25.8337 10.9158 25.8337 17.7299V24.1168H31.9611V17.7299C31.9611 9.86385 25.598 3.40625 17.7321 3.40625Z" fill="black"/>
<path d="M5.57788 20.4728C3.64605 20.4728 2.08008 22.0389 2.08008 23.9706C2.08008 25.9024 3.64605 27.4684 5.57788 27.4684H7.27886V20.4727L5.57788 20.4728Z" fill="#E6B696"/>
<path d="M34.5714 52.836C32.7015 48.2224 28.9894 44.5524 24.3471 42.7387L24.2738 42.7109H11.2163C6.54018 44.5146 2.79851 48.1985 0.918945 52.8362H34.5714V52.836Z" fill="#FF6465"/>
<path d="M21.4475 41.8805V35.3086H14.0436V41.8805C13.0707 42.0824 12.1259 42.3616 11.2168 42.7123C12.0062 45.5777 14.6291 47.6831 17.7455 47.6831C20.862 47.6831 23.4849 45.5777 24.2743 42.7123C23.3651 42.3616 22.4204 42.0825 21.4475 41.8805Z" fill="#E6B696"/>
<path d="M25.4287 52.836C27.2986 48.2224 31.0107 44.5524 35.6529 42.7387L35.7263 42.7109H48.7837C53.4598 44.5146 57.2013 48.1985 59.0811 52.8362H25.4287V52.836Z" fill="#A5EB78"/>
<path d="M38.5523 41.8805V35.3086H45.9562V41.8805C46.929 42.0824 47.8738 42.3616 48.7829 42.7123C47.9936 45.5777 45.3707 47.6831 42.2542 47.6831C39.1377 47.6831 36.5148 45.5777 35.7256 42.7123C36.6347 42.3616 37.5794 42.0825 38.5523 41.8805Z" fill="#E6B696"/>
<path opacity="0.1" d="M14.0693 35.1486V41.3674C15.1723 41.6532 16.4703 41.8054 17.7457 41.8054C19.0212 41.8054 20.3192 41.653 21.4221 41.3673V35.1484H14.0693V35.1486Z" fill="black"/>
<path opacity="0.1" d="M38.5781 35.1484V41.3673C39.6811 41.653 40.9791 41.8055 42.2545 41.8055C43.53 41.8055 44.828 41.6531 45.9309 41.3676V35.1487H38.5781V35.1484Z" fill="black"/>
<path d="M26.5164 14.7552C25.3054 14.7552 24.3238 13.7735 24.3238 12.5625C24.3238 13.7735 23.3421 14.7552 22.1311 14.7552C20.92 14.7552 19.9384 13.7735 19.9384 12.5625C19.9384 13.7735 18.9567 14.7552 17.7457 14.7552C16.5347 14.7552 15.553 13.7735 15.553 12.5625C15.553 13.7735 14.5713 14.7552 13.3603 14.7552C12.1493 14.7552 11.1676 13.7735 11.1676 12.5625C11.1676 13.7735 10.1859 14.7552 8.97492 14.7552C8.26781 14.7552 7.64062 14.4191 7.23961 13.8995C6.1773 15.6153 5.56348 17.6381 5.56348 19.8046V25.9442C5.56348 32.6722 11.0177 38.1263 17.7457 38.1263C24.4736 38.1263 29.9279 32.6721 29.9279 25.9442V19.8046C29.9279 17.6382 29.3141 15.6155 28.2518 13.8995C27.8507 14.419 27.2236 14.7552 26.5164 14.7552Z" fill="#F0C5A6"/>
<path d="M42.2553 3.48828C34.3892 3.48828 28.0127 9.86491 28.0127 17.7309V24.2114H56.498V17.7309C56.4979 9.86491 50.1211 3.48828 42.2553 3.48828Z" fill="#FFD782"/>
<path opacity="0.1" d="M42.241 3.40625H42.2476C41.1958 3.40625 40.1607 3.56176 39.1738 3.7782C45.5671 5.17988 50.3426 10.9158 50.3426 17.7299V24.1168H56.47V17.7299C56.47 9.86385 50.1068 3.40625 42.241 3.40625Z" fill="black"/>
<path d="M54.4227 20.4728C56.3545 20.4728 57.9205 22.0389 57.9205 23.9706C57.9205 25.9024 56.3545 27.4684 54.4227 27.4684H52.7217V20.4727L54.4227 20.4728Z" fill="#E6B696"/>
<path d="M33.4838 14.7552C34.6948 14.7552 35.6765 13.7735 35.6765 12.5625C35.6765 13.7735 36.6582 14.7552 37.8692 14.7552C39.0802 14.7552 40.0619 13.7735 40.0619 12.5625C40.0619 13.7735 41.0436 14.7552 42.2546 14.7552C43.4656 14.7552 44.4473 13.7735 44.4473 12.5625C44.4473 13.7735 45.429 14.7552 46.64 14.7552C47.851 14.7552 48.8327 13.7735 48.8327 12.5625C48.8327 13.7735 49.8143 14.7552 51.0253 14.7552C51.7325 14.7552 52.3596 14.4191 52.7607 13.8995C53.8228 15.6153 54.4367 17.6381 54.4367 19.8046V25.9442C54.4367 32.6722 48.9825 38.1263 42.2545 38.1263C35.5264 38.1263 30.0723 32.6721 30.0723 25.9442V19.8046C30.0723 17.6382 30.6861 15.6155 31.7484 13.8995C32.1495 14.419 32.7767 14.7552 33.4838 14.7552Z" fill="#F0C5A6"/>
<path d="M30.0004 7.16406C22.1343 7.16406 15.7578 13.5407 15.7578 21.4067V27.8872H44.2431V21.4068C44.2431 13.5407 37.8665 7.16406 30.0004 7.16406Z" fill="#5A4146"/>
<path opacity="0.1" d="M29.9869 7.08594H29.9937C28.9419 7.08594 27.9068 7.24145 26.9199 7.45789C33.3132 8.85957 38.0886 14.5955 38.0886 21.4096V27.7964H44.2159V21.4096C44.2159 13.5435 37.853 7.08594 29.9869 7.08594Z" fill="black"/>
<path d="M17.8318 24.1486C15.9 24.1486 14.334 25.7146 14.334 27.6464C14.334 29.5782 15.9 31.1442 17.8318 31.1442H19.5328V24.1484H17.8318V24.1486Z" fill="#E6B273"/>
<path d="M42.1679 24.1486C44.0997 24.1486 45.6657 25.7146 45.6657 27.6464C45.6657 29.5782 44.0997 31.1442 42.1679 31.1442H40.4669V24.1484H42.1679V24.1486Z" fill="#E6B273"/>
<path d="M46.8264 56.5121C44.9565 51.8984 41.2444 48.2284 36.6021 46.4147L36.5288 46.387H23.4714C18.7953 48.1906 15.0536 51.8745 13.174 56.5122H46.8264V56.5121Z" fill="#6AB2CC"/>
<path d="M33.7024 45.5562V38.9844H26.2985V45.5562C25.3256 45.7581 24.3808 46.0374 23.4717 46.388C24.2611 49.2535 26.8839 51.3589 30.0004 51.3589C33.1168 51.3589 35.7398 49.2535 36.529 46.388C35.6199 46.0373 34.6753 45.7581 33.7024 45.5562Z" fill="#F0C087"/>
<path opacity="0.1" d="M26.3232 38.8243V45.0432C27.4262 45.3289 28.7242 45.4812 29.9996 45.4812C31.2751 45.4812 32.5731 45.3288 33.676 45.0431V38.8242L26.3232 38.8243Z" fill="black"/>
<path d="M38.7713 18.4349C37.5603 18.4349 36.5786 17.4532 36.5786 16.2422C36.5786 17.4532 35.597 18.4349 34.3859 18.4349C33.1749 18.4349 32.1933 17.4532 32.1933 16.2422C32.1933 17.4532 31.2116 18.4349 30.0006 18.4349C28.7896 18.4349 27.8079 17.4532 27.8079 16.2422C27.8079 17.4532 26.8262 18.4349 25.6152 18.4349C24.4042 18.4349 23.4225 17.4532 23.4225 16.2422C23.4225 17.4532 22.4408 18.4349 21.2298 18.4349C20.5227 18.4349 19.8955 18.0988 19.4945 17.5792C18.4322 19.295 17.8184 21.3178 17.8184 23.4842V29.6239C17.8184 36.3519 23.2726 41.806 30.0006 41.806C36.7285 41.806 42.1828 36.3519 42.1828 29.6239V23.4842C42.1828 21.3179 41.5689 19.2952 40.5068 17.5792C40.1056 18.0987 39.4784 18.4349 38.7713 18.4349Z" fill="#F0C087"/>
<path d="M26.2729 33.5393C25.9919 33.9621 26.1069 34.5326 26.5296 34.8136C27.2578 35.2976 28.5553 35.5864 30.0003 35.5864C31.4452 35.5864 32.7425 35.2976 33.4708 34.8137C33.8934 34.5327 34.0085 33.9622 33.7275 33.5394C33.4465 33.1167 32.8761 33.0016 32.4534 33.2827C32.1161 33.5069 31.2046 33.7482 30.0003 33.7482C28.796 33.7482 27.8844 33.5068 27.5469 33.2825C27.1242 33.0018 26.5537 33.1166 26.2729 33.5393Z" fill="black"/>
<path d="M22.7357 25.8396C22.9381 25.6741 23.5911 25.428 24.5612 25.428C25.5314 25.428 26.1846 25.6742 26.3868 25.8397C26.7748 26.1568 27.3632 26.0975 27.6802 25.71C28.0015 25.3169 27.9434 24.7379 27.5505 24.4166C26.9174 23.8989 25.8 23.5897 24.5611 23.5897C23.3227 23.5897 22.205 23.8987 21.5719 24.4165C21.1788 24.7378 21.1208 25.3168 21.442 25.7098C21.7637 26.1028 22.3427 26.1612 22.7357 25.8396Z" fill="black"/>
<path d="M24.5607 29.0824C25.2976 29.0824 25.8949 28.4851 25.8949 27.7482C25.8949 27.0114 25.2976 26.4141 24.5607 26.4141C23.8239 26.4141 23.2266 27.0114 23.2266 27.7482C23.2266 28.4851 23.8239 29.0824 24.5607 29.0824Z" fill="black"/>
<path d="M33.0322 26.0473C33.2368 26.0473 33.4428 25.9793 33.6136 25.8397C33.8157 25.6743 34.4689 25.428 35.4391 25.428C36.4092 25.428 37.0624 25.6743 37.2647 25.8396C37.6579 26.1613 38.237 26.1027 38.5581 25.7099C38.8793 25.3168 38.8212 24.7378 38.4282 24.4166C37.7952 23.899 36.6777 23.5898 35.439 23.5898C34.2003 23.5898 33.0828 23.8989 32.4496 24.4167C32.0566 24.738 31.9986 25.3171 32.32 25.7101C32.5019 25.9322 32.7658 26.0473 33.0322 26.0473Z" fill="black"/>
<path d="M35.4396 29.0824C36.1765 29.0824 36.7738 28.4851 36.7738 27.7482C36.7738 27.0114 36.1765 26.4141 35.4396 26.4141C34.7028 26.4141 34.1055 27.0114 34.1055 27.7482C34.1055 28.4851 34.7028 29.0824 35.4396 29.0824Z" fill="black"/>
<path d="M59.9327 52.4913C57.9587 47.6217 54.0156 43.7444 49.1143 41.8538C48.387 41.5733 47.6368 41.3366 46.8758 41.1468V38.2054C51.107 36.6051 54.2999 32.8744 55.1384 28.3285C57.2346 27.9854 58.8398 26.1623 58.8398 23.9705C58.8398 22.6915 58.2907 21.5365 57.4165 20.7284V17.7321C57.4165 13.4502 55.5923 9.34749 52.4117 6.47581C52.0349 6.13585 51.4539 6.16527 51.1136 6.54214C50.7734 6.9189 50.8031 7.50015 51.1798 7.84022C53.9752 10.364 55.5784 13.9694 55.5784 17.7321V19.706C55.5045 19.6861 55.4302 19.6681 55.3553 19.652C55.3547 19.6052 55.3523 19.5586 55.3511 19.512C55.3127 17.9267 54.9597 16.3597 54.3259 14.9063C54.1018 14.3923 53.8379 13.8945 53.5425 13.418C53.3839 13.1616 53.1094 12.9995 52.8084 12.9839C52.5084 12.9688 52.2179 13.1016 52.0335 13.3403C51.7892 13.6568 51.422 13.8385 51.026 13.8385C50.3236 13.8385 49.7522 13.2672 49.7522 12.5649C49.7522 12.0573 49.3408 11.6458 48.8331 11.6458C48.3255 11.6458 47.914 12.0573 47.914 12.5649C47.914 13.2672 47.3428 13.8385 46.6403 13.8385C45.9381 13.8385 45.3667 13.2672 45.3667 12.5649C45.3667 12.0573 44.9553 11.6458 44.4476 11.6458C43.94 11.6458 43.5285 12.0573 43.5285 12.5649C43.5285 12.7596 43.4805 12.958 43.3923 13.1313C43.3026 13.3076 43.1729 13.4629 43.0146 13.5815C43.0083 13.5862 43.0021 13.5911 42.9958 13.5955C42.4219 12.6448 41.7457 11.7659 40.9865 10.9702C40.9762 10.9593 40.9658 10.9484 40.9553 10.9376C39.7552 9.68721 38.3482 8.63979 36.8 7.85944C36.2524 7.58335 35.6587 7.32835 35.0691 7.11847C34.9902 7.09023 34.5277 6.87636 34.4687 6.91902C36.7248 5.28999 39.4326 4.40851 42.2548 4.40851C44.3833 4.40851 46.4172 4.89543 48.2998 5.85566C48.7522 6.08628 49.3055 5.90675 49.5361 5.45453C49.7669 5.0023 49.5872 4.44882 49.1351 4.2182C46.9913 3.12484 44.6764 2.57031 42.2547 2.57031C38.5184 2.57031 34.9588 3.92875 32.1792 6.40398C31.4673 6.30109 30.74 6.24671 30.0001 6.24671C29.2602 6.24671 28.5328 6.30097 27.821 6.40398C25.0414 3.92875 21.4817 2.57031 17.7455 2.57031C14.5545 2.57031 11.5014 3.55082 8.91599 5.40589C8.50349 5.70179 8.40904 6.27613 8.70493 6.68851C9.00095 7.10112 9.57552 7.19511 9.98755 6.89945C12.2586 5.26984 14.9413 4.4084 17.7455 4.4084C20.5677 4.4084 23.2755 5.28988 25.5316 6.9189C23.2089 7.63667 21.1235 8.89925 19.4239 10.5559C18.8268 11.138 18.2752 11.7665 17.7796 12.4372C17.7096 12.5319 16.9702 13.57 17.0046 13.5952C16.9982 13.5905 16.9918 13.5856 16.9855 13.5809C16.6738 13.3467 16.472 12.9591 16.472 12.5645C16.472 12.057 16.0605 11.6454 15.5529 11.6454C15.0452 11.6454 14.6338 12.057 14.6338 12.5645C14.6338 13.2668 14.0625 13.8381 13.3602 13.8381C12.6579 13.8381 12.0865 13.2668 12.0865 12.5645C12.0865 12.057 11.675 11.6454 11.1674 11.6454C10.6597 11.6454 10.2483 12.057 10.2483 12.5645C10.2483 13.2668 9.677 13.8381 8.97458 13.8381C8.57861 13.8381 8.21122 13.6566 7.96701 13.3401C7.78279 13.1013 7.49158 12.9686 7.19216 12.9836C6.89111 12.999 6.61678 13.1612 6.45799 13.4176C5.57475 14.8442 4.98541 16.4595 4.76182 18.1232C4.69994 18.5838 4.66068 19.0468 4.64943 19.5115C4.64838 19.5581 4.64592 19.6048 4.64522 19.6515C4.57033 19.6676 4.4958 19.6856 4.42209 19.7056V17.7317C4.42209 14.6399 5.50502 11.6271 7.47142 9.24846C7.79498 8.85718 7.73978 8.27792 7.34861 7.95437C6.95744 7.63105 6.37795 7.68589 6.05463 8.07718C3.81647 10.7846 2.58389 14.2132 2.58389 17.7317V20.7279C1.70967 21.536 1.16065 22.691 1.16065 23.97C1.16065 26.1619 2.76577 27.985 4.86201 28.3281C5.70049 32.874 8.89326 36.6047 13.1245 38.205V41.1464C12.3635 41.3361 11.6133 41.5728 10.8861 41.8534C9.28396 42.4714 7.76755 43.3084 6.37924 44.3407C5.97201 44.6436 5.88717 45.2193 6.1901 45.6267C6.49291 46.0339 7.06853 46.1186 7.47611 45.8158C8.47525 45.0729 9.54739 44.4419 10.6733 43.934C10.4259 44.0457 12.3561 46.3975 12.5528 46.5766C13.4039 47.3518 14.4266 47.9408 15.5298 48.2725C16.2468 48.488 16.9968 48.6008 17.7457 48.6008C17.7912 48.6008 17.8368 48.6004 17.882 48.5996C16.7068 49.5679 15.6461 50.6796 14.7213 51.9168H2.34389C3.02381 50.5653 3.88022 49.3088 4.90033 48.1685C5.23877 47.7902 5.20643 47.2091 4.82815 46.8707C4.44975 46.5323 3.86873 46.5646 3.5303 46.9429C2.05713 48.5898 0.891941 50.4563 0.0672945 52.4907C-0.047549 52.774 -0.0139163 53.096 0.156826 53.3494C0.327685 53.603 0.61327 53.755 0.919012 53.755H13.5074C13.0581 54.5268 12.6604 55.332 12.3219 56.1671C12.2071 56.4504 12.2407 56.7724 12.4115 57.026C12.5823 57.2795 12.8679 57.4315 13.1736 57.4315H46.826C47.1317 57.4315 47.4174 57.2795 47.5881 57.026C47.7591 56.7724 47.7925 56.4506 47.6777 56.1673C47.3394 55.3322 46.9414 54.5272 46.492 53.7553H59.0805C59.3862 53.7553 59.6719 53.6033 59.8427 53.3497C60.0139 53.0965 60.0474 52.7746 59.9327 52.4913ZM45.0374 38.7509V41.8796C45.0374 42.3153 45.3432 42.691 45.7697 42.7795C46.3912 42.9084 47.0074 43.0725 47.6104 43.2695C47.602 43.2886 47.5938 43.3078 47.5852 43.3268C47.2373 44.0911 46.7273 44.7805 46.0892 45.3275C45.0244 46.2403 43.6607 46.7633 42.2548 46.7633C41.3335 46.7633 40.4185 46.5393 39.5978 46.1217C38.424 45.524 37.4698 44.5255 36.9243 43.327C36.9158 43.308 36.9076 43.2888 36.8991 43.2697C37.5023 43.0727 38.1185 42.9086 38.7397 42.7797C39.1661 42.6913 39.472 42.3154 39.472 41.8798V38.7508C39.5191 38.761 39.5663 38.7698 39.6135 38.7795C40.4756 38.9561 41.3703 39.0481 42.2549 39.0481C43.1558 39.0481 44.058 38.9556 44.9397 38.7711C44.9721 38.7641 45.0049 38.7581 45.0374 38.7509ZM35.2872 47.0957C34.3237 49.1133 32.2371 50.4396 30 50.4396C27.7194 50.4396 25.5646 49.0312 24.6445 46.9466C24.6621 46.9408 24.6794 46.9351 24.6969 46.9294C25.2839 46.7409 25.881 46.5812 26.4847 46.4559C26.9112 46.3674 27.217 45.9916 27.217 45.556V42.4275C27.2498 42.4346 27.283 42.4406 27.3158 42.4474C28.1979 42.6311 29.0988 42.7243 30 42.7243C30.86 42.7243 31.7209 42.6391 32.5644 42.4716C32.6373 42.4573 32.7103 42.4432 32.7829 42.4273V45.556C32.7829 45.9917 33.0887 46.3674 33.5152 46.4559C34.1172 46.5808 34.7131 46.7383 35.2979 46.9278C35.317 46.934 35.3362 46.9405 35.3553 46.9467C35.347 46.9655 35.3389 46.9844 35.3305 47.0032C35.3163 47.0341 35.302 47.065 35.2872 47.0957ZM16.9057 30.0538C15.94 29.6809 15.2531 28.7427 15.2531 27.647C15.2531 26.7674 15.6981 25.9883 16.3743 25.5225C16.534 25.4123 16.7066 25.3214 16.8864 25.2489C16.8905 25.2472 16.8945 25.2459 16.8986 25.2443V29.623C16.8986 29.7571 16.9012 29.8905 16.9053 30.0237C16.9056 30.0336 16.9055 30.0437 16.9057 30.0538ZM21.2292 19.3532C22.0839 19.3532 22.8589 19.007 23.4219 18.4473C23.9849 19.0069 24.7599 19.3532 25.6147 19.3532C26.4694 19.3532 27.2444 19.007 27.8074 18.4473C28.3001 18.937 28.955 19.2632 29.6836 19.3371C29.7876 19.3477 29.8932 19.3531 30.0001 19.3531C30.8547 19.3531 31.6298 19.0068 32.1928 18.4472C32.7557 19.0068 33.5309 19.3531 34.3856 19.3531C35.2402 19.3531 36.0153 19.0068 36.5783 18.4472C37.1412 19.0068 37.9164 19.3531 38.7711 19.3531C39.2915 19.3531 39.7912 19.2257 40.2343 18.9887C40.91 20.383 41.2632 21.9177 41.2632 23.4832V24.1493V29.623C41.2632 29.9573 41.2473 30.2924 41.2181 30.6253C41.2166 30.6419 41.2151 30.6586 41.2136 30.6753C40.9868 33.1046 39.9418 35.4418 38.2918 37.2371L38.0456 37.4963C36.6972 38.8739 34.9995 39.9082 33.0969 40.453C33.091 40.4547 33.0853 40.4565 33.0795 40.4581C32.0802 40.7415 31.0388 40.8861 30.0001 40.8861C28.9629 40.8861 27.9184 40.7424 26.9206 40.4581C26.9149 40.4565 26.909 40.4546 26.9033 40.453C22.6946 39.244 19.4449 35.5092 18.844 31.1722C18.8432 31.1664 18.8423 31.1606 18.8415 31.1549C18.7714 30.6483 18.737 30.1344 18.737 29.623V24.1493V23.4832C18.737 21.9177 19.0904 20.3828 19.7659 18.9887C19.9321 19.0777 20.1062 19.1511 20.2863 19.2082C20.5866 19.3034 20.9037 19.3532 21.2292 19.3532ZM35.4072 45.0376C35.1468 44.9605 34.8846 44.889 34.6211 44.8232V44.2002C34.8075 44.1078 34.9947 44.0189 35.1823 43.9341C35.155 43.9467 35.7282 44.9772 35.8029 45.0921C35.8208 45.1196 35.8377 45.1481 35.8559 45.1754C35.84 45.1702 35.8237 45.1658 35.8077 45.1607C35.6746 45.1183 35.5412 45.0772 35.4072 45.0376ZM35.4016 41.8515C35.4011 41.8517 35.4005 41.8518 35.4 41.852L35.318 41.883C35.0852 41.9739 34.8528 42.0724 34.621 42.1741V41.8818C35.7 41.4738 36.7114 40.9276 37.6334 40.2642V41.1467C36.8749 41.336 36.1269 41.5721 35.4016 41.8515ZM43.0948 30.0182C43.0987 29.8869 43.1013 29.7553 43.1013 29.6231V25.2443C43.1051 25.2458 43.1091 25.2471 43.1129 25.2487C43.2817 25.3157 43.4431 25.4009 43.5944 25.5014C43.6049 25.5084 43.6155 25.5156 43.6259 25.5228C44.3019 25.9887 44.7466 26.7674 44.7466 27.647C44.7466 28.7426 44.0599 29.6808 43.0941 30.0537C43.0947 30.0418 43.0945 30.03 43.0948 30.0182ZM22.3664 40.2643C23.2884 40.9277 24.3 41.4739 25.3788 41.882V42.174C25.1455 42.0719 24.9108 41.9727 24.6733 41.8798L24.6 41.8521C24.599 41.8517 24.598 41.8515 24.5971 41.8511C23.8721 41.572 23.1247 41.336 22.3663 41.147V40.2644L22.3664 40.2643ZM25.3789 44.8232C24.9796 44.9227 24.5836 45.0361 24.1914 45.1612C24.1756 45.1662 24.1597 45.1705 24.1441 45.1755C24.273 44.983 24.3931 44.7815 24.5039 44.5781C24.6177 44.369 24.7241 44.1527 24.8178 43.9339C25.0063 44.019 25.1934 44.1075 25.3788 44.1992L25.3789 44.8232ZM55.3488 26.3774C55.3491 26.3655 55.349 26.3536 55.3493 26.3418C55.3532 26.2105 55.3558 26.0789 55.3558 25.9467V21.568C55.3598 21.5697 55.364 21.5709 55.3681 21.5727C55.5368 21.6395 55.6984 21.7248 55.8494 21.8254C55.8597 21.8323 55.87 21.8392 55.8803 21.8463C56.5565 22.3121 57.0014 23.0912 57.0014 23.9708C57.0014 25.0663 56.3146 26.0045 55.3488 26.3774ZM46.64 15.6768C47.4946 15.6768 48.2698 15.3305 48.8328 14.7709C49.3958 15.3305 50.171 15.6768 51.0256 15.6768C51.546 15.6768 52.0456 15.5494 52.4888 15.3123C53.1643 16.7065 53.5177 18.2413 53.5177 19.8069V20.473V25.9467C53.5177 26.3907 53.4814 26.8301 53.4394 27.2714C52.9056 31.8067 49.667 35.5258 45.3853 36.7666C45.3679 36.7717 45.3507 36.7772 45.3332 36.7821C43.8543 37.2013 42.2913 37.3108 40.7674 37.1117C40.7621 37.111 40.7569 37.1101 40.7517 37.1094C41.091 36.6226 41.3936 36.1139 41.6623 35.5892C41.6644 35.5853 41.6666 35.5813 41.6685 35.5773C42.2182 34.5019 42.6282 33.322 42.8607 32.1249C42.8624 32.1163 42.864 32.1076 42.8657 32.0989C42.8717 32.0676 42.878 32.0366 42.8838 32.0053C44.9799 31.6622 46.585 29.8391 46.585 27.6473C46.585 26.3684 46.036 25.2134 45.1618 24.4052V21.4088C45.1618 19.9122 44.9428 18.4661 44.5369 17.0994C44.5353 17.094 44.5338 17.0888 44.5321 17.0834C44.3439 16.453 44.1165 15.8327 43.8487 15.2318C43.8539 15.2288 43.8588 15.2252 43.8638 15.222C43.9099 15.1936 44.4651 14.7886 44.4435 14.767C44.5491 14.8724 44.6623 14.9702 44.782 15.0595C45.3132 15.4562 45.9769 15.6768 46.64 15.6768ZM32.981 8.42147C33.3839 8.51382 33.7824 8.62538 34.1749 8.75604C36.2616 9.45026 38.1595 10.6649 39.6743 12.2577C41.0526 13.707 42.089 15.4712 42.6986 17.3752C42.7024 17.3868 42.7064 17.3985 42.71 17.4101C42.9914 18.3074 43.1782 19.2352 43.2657 20.1745C43.2666 20.1857 43.2677 20.1969 43.2686 20.2082C43.3049 20.6072 43.3232 21.0083 43.3232 21.4089V23.3828C43.2493 23.3629 43.1751 23.3448 43.1002 23.3287C43.0996 23.282 43.0972 23.2354 43.096 23.1887C43.0574 21.5975 42.7052 20.0045 42.0564 18.5506C41.8326 18.0491 41.5767 17.5615 41.2873 17.0947C41.1285 16.8383 40.8542 16.6761 40.5532 16.6607C40.251 16.6458 39.9625 16.7783 39.7783 17.0172C39.5341 17.3337 39.1668 17.5152 38.7707 17.5152C38.0684 17.5152 37.497 16.9439 37.497 16.2416C37.497 15.7341 37.0856 15.3225 36.5779 15.3225C36.0703 15.3225 35.6588 15.7341 35.6588 16.2416C35.6588 16.9439 35.0875 17.5152 34.3852 17.5152C33.6829 17.5152 33.1115 16.9439 33.1115 16.2416C33.1115 15.7341 32.7002 15.3225 32.1924 15.3225C31.6847 15.3225 31.2733 15.7341 31.2733 16.2416C31.2733 16.9439 30.702 17.5152 29.9997 17.5152C29.2974 17.5152 28.7261 16.9439 28.7261 16.2416C28.7261 15.7341 28.3147 15.3225 27.807 15.3225C27.2994 15.3225 26.8879 15.7341 26.8879 16.2416C26.8879 16.9355 26.3075 17.5152 25.6144 17.5152C24.9254 17.5152 24.3408 16.9301 24.3408 16.2416C24.3408 15.7341 23.9293 15.3225 23.4217 15.3225C22.914 15.3225 22.5026 15.7341 22.5026 16.2416C22.5026 16.9354 21.9221 17.5152 21.229 17.5152C20.8358 17.5152 20.4609 17.3277 20.2214 17.0172C20.0372 16.7784 19.7456 16.6458 19.4466 16.6607C19.1455 16.6761 18.8712 16.8383 18.7124 17.0947C18.2471 17.8463 17.8578 18.6578 17.5718 19.4945C17.3253 20.2153 17.1428 20.9529 17.0295 21.7063C16.9552 22.2002 16.9153 22.699 16.9035 23.1984C16.9025 23.2419 16.9002 23.2852 16.8997 23.3289C16.8248 23.3449 16.7503 23.363 16.6766 23.3829V21.4088C16.6766 19.7432 16.9905 18.0762 17.6027 16.5271C18.9409 13.1403 21.7003 10.3772 25.0944 9.02288C25.7021 8.7803 26.3662 8.57183 27.0191 8.42171C28.9715 7.97265 31.0284 7.97347 32.981 8.42147ZM4.65107 26.3774C3.68533 26.0045 2.9985 25.0663 2.9985 23.9706C2.9985 22.928 3.66319 21.9557 4.63186 21.5725C4.63596 21.5708 4.63994 21.5694 4.64416 21.5678V25.9465C4.64416 26.0787 4.64674 26.2103 4.65061 26.3415C4.65084 26.3536 4.65072 26.3654 4.65107 26.3774ZM6.56064 27.2714C6.50896 26.8319 6.48236 26.3891 6.48236 25.9467V20.473V19.8069C6.48236 18.2414 6.8358 16.7065 7.51126 15.3124C7.95435 15.5495 8.45404 15.6768 8.97447 15.6768C9.82911 15.6768 10.6043 15.3305 11.1673 14.7709C11.7302 15.3305 12.5054 15.6768 13.3601 15.6768C13.4672 15.6768 13.5729 15.6714 13.6772 15.6607C14.4073 15.5864 15.0636 15.2586 15.5565 14.767C15.5419 14.782 16.043 15.1626 16.0938 15.1947C16.1079 15.2036 16.1216 15.2131 16.136 15.2218C16.1412 15.225 16.1462 15.2286 16.1514 15.2318C16.0191 15.5288 15.8977 15.8304 15.7848 16.1353C15.6691 16.4479 15.5631 16.7639 15.468 17.0833C15.4664 17.0886 15.4648 17.0942 15.4631 17.0995C15.0573 18.4662 14.8383 19.9123 14.8383 21.4088V24.405C13.9641 25.2131 13.415 26.3681 13.415 27.6471C13.415 29.8389 15.02 31.6619 17.1163 32.0051C17.1225 32.0387 17.1292 32.072 17.1355 32.1054C17.1363 32.1099 17.1373 32.1143 17.1381 32.1187C17.4852 33.9016 18.2094 35.6189 19.2483 37.1093C19.2431 37.11 19.2381 37.1109 19.2329 37.1116C17.7102 37.3134 16.1434 37.2027 14.6634 36.7811C10.3574 35.5544 7.09642 31.8239 6.56064 27.2714ZM14.2301 42.7794C14.6565 42.6909 14.9624 42.3151 14.9624 41.8795V38.7508C14.9943 38.7577 15.0263 38.7636 15.0581 38.7702C15.9408 38.955 16.8435 39.0478 17.7453 39.0478C18.6798 39.0478 19.615 38.9482 20.5283 38.7506V41.8795C20.5283 42.3152 20.8341 42.6909 21.2606 42.7794C21.8639 42.9047 22.5414 43.0261 23.1017 43.277C22.3282 44.7979 21.1302 45.9857 19.4701 46.5016C18.9136 46.6746 18.3282 46.763 17.7453 46.763C15.9838 46.763 14.2516 45.9232 13.1589 44.5428C12.8729 44.1818 12.519 43.7158 12.3981 43.2696C12.9833 43.0466 13.6177 42.9066 14.2301 42.7794ZM14.5991 55.5939C15.0122 54.7735 15.49 53.991 16.0243 53.2517C17.4231 51.3148 19.2243 49.6739 21.2836 48.4624C21.2869 48.4604 21.29 48.4585 21.2934 48.4566C21.8242 48.1478 22.3687 47.8651 22.9288 47.6131C22.8807 47.6348 23.5315 48.7538 23.5945 48.8477C25.0127 50.9581 27.4531 52.2779 29.9999 52.2779C31.2273 52.2779 32.4613 51.9704 33.5496 51.4047C35.1119 50.5925 36.3781 49.2314 37.0714 47.6125C37.5219 47.8154 37.9645 48.0371 38.3959 48.2779C40.3176 49.3539 42.0157 50.7902 43.3958 52.4933C43.5939 52.7378 43.7848 52.9885 43.9695 53.2435C44.5064 53.9853 44.9862 54.7706 45.4008 55.5938H14.5991V55.5939ZM45.279 51.9175C44.3548 50.6806 43.2938 49.5692 42.118 48.6003C42.1634 48.601 42.2089 48.6015 42.2546 48.6015C44.6095 48.6015 46.9078 47.4635 48.3458 45.601C48.74 45.0903 49.0729 44.5277 49.3269 43.9345C52.9277 45.5587 55.8816 48.3944 57.6555 51.9175H45.279Z" fill="black"/>
</svg>
